<svg xmlns="http://www.w3.org/2000/svg" viewBox="0 0 1024 768" width="100%" height="100%">
  <title>さる</title>
  <g class="coloring-parts" fill="transparent" stroke="black" stroke-width="5" stroke-linecap="round" stroke-linejoin="round">
    <path id="bg" class="coloring-part coloring-part--bg" data-part="bg" data-label="はいけい" d="M0 0H1024V768H0Z" fill="transparent" stroke="none" stroke-width="0" stroke-linecap="round" stroke-linejoin="round" pointer-events="all" style="pointer-events: all; fill: transparent; stroke: none; stroke-width: 0px;" />
    <path id="ears" class="coloring-part" data-part="ears" data-label="ears" d="M364 353A55 55 0 1 1 382 255A150 150 0 0 0 364 353Z M642 255A55 55 0 1 1 660 353A150 150 0 0 0 642 255Z" fill="transparent" stroke="black" stroke-width="5" stroke-linecap="round" stroke-linejoin="round" pointer-events="all" style="pointer-events: all; fill: transparent; stroke: black; stroke-width: 5px;" />
    <path id="head" class="coloring-part" data-part="head" data-label="head" d="M362 330A150 150 0 1 0 662 330A150 150 0 1 0 362 330Z" fill="transparent" stroke="black" stroke-width="5" stroke-linecap="round" stroke-linejoin="round" pointer-events="all" style="pointer-events: all; fill: transparent; stroke: black; stroke-width: 5px;" />
    <path id="body" class="coloring-part" data-part="body" data-label="body" d="M457 480H567A65 65 0 0 1 632 545V585A65 65 0 0 1 567 650H457A65 65 0 0 1 392 585V545A65 65 0 0 1 457 480Z" fill="transparent" stroke="black" stroke-width="5" stroke-linecap="round" stroke-linejoin="round" pointer-events="all" style="pointer-events: all; fill: transparent; stroke: black; stroke-width: 5px;" />
    <path id="banana" class="coloring-part" data-part="banana" data-label="banana" d="M660 480C750 480 790 400 770 330C755 350 710 400 640 430Z" fill="transparent" stroke="black" stroke-width="5" stroke-linecap="round" stroke-linejoin="round" pointer-events="all" style="pointer-events: all; fill: transparent; stroke: black; stroke-width: 5px;" />
    <path id="ground" class="coloring-part" data-part="ground" data-label="ground" d="M0 650Q512 635 1024 670V768H0Z" fill="transparent" stroke="black" stroke-width="5" stroke-linecap="round" stroke-linejoin="round" pointer-events="all" style="pointer-events: all; fill: transparent; stroke: black; stroke-width: 5px;" />
    <path id="monkey-inner-1" class="coloring-part" data-part="monkey-inner-1" data-label="パーツ" d="M462 316A14 14 0 1 1 461.9 316Z" fill="transparent" stroke="black" stroke-width="5" stroke-linecap="round" stroke-linejoin="round" pointer-events="all" style="pointer-events: all; fill: transparent; stroke: black; stroke-width: 5px;" />
    <path id="monkey-inner-2" class="coloring-part" data-part="monkey-inner-2" data-label="パーツ" d="M459 320a4 4 0 1 0 8 0a4 4 0 1 0 -8 0Z" fill="transparent" stroke="black" stroke-width="5" stroke-linecap="round" stroke-linejoin="round" pointer-events="all" style="pointer-events: all; fill: transparent; stroke: black; stroke-width: 5px;" />
    <path id="monkey-inner-3" class="coloring-part" data-part="monkey-inner-3" data-label="パーツ" d="M562 316A14 14 0 1 1 561.9 316Z" fill="transparent" stroke="black" stroke-width="5" stroke-linecap="round" stroke-linejoin="round" pointer-events="all" style="pointer-events: all; fill: transparent; stroke: black; stroke-width: 5px;" />
    <path id="monkey-inner-4" class="coloring-part" data-part="monkey-inner-4" data-label="パーツ" d="M559 320a4 4 0 1 0 8 0a4 4 0 1 0 -8 0Z" fill="transparent" stroke="black" stroke-width="5" stroke-linecap="round" stroke-linejoin="round" pointer-events="all" style="pointer-events: all; fill: transparent; stroke: black; stroke-width: 5px;" />
    <path id="monkey-inner-5" class="coloring-part" data-part="monkey-inner-5" data-label="パーツ" d="M420 280C420 230 470 230 512 270C554 230 604 230 604 280C604 360 420 360 420 280Z" fill="transparent" stroke="black" stroke-width="5" stroke-linecap="round" stroke-linejoin="round" pointer-events="all" style="pointer-events: all; fill: transparent; stroke: black; stroke-width: 5px;" />
  </g>
  <g class="coloring-lines" pointer-events="none" stroke="black" stroke-width="6" stroke-linecap="round" stroke-linejoin="round" fill="none" style="pointer-events: none; fill: none; stroke: black; stroke-width: 6px;">
    <path d="M492 358Q512 380 532 358" />
    <path d="M437 348q8 8 16 0" />
    <path d="M571 348q8 8 16 0" />
    <path d="M620 540C680 620 740 600 720 530C700 480 660 520 630 510" />
    <path d="M655 450l110 -115" />
  </g>
</svg>