<svg xmlns="http://www.w3.org/2000/svg" viewBox="0 0 1024 768" width="100%" height="100%">
  <title>イルカ</title>
  <rect width="1024" height="768" fill="#ffffff" pointer-events="none" />
  <g class="coloring-parts" pointer-events="none">
    <path id="body" class="coloring-part" data-part="body" data-label="body" d="M260 490C360 280 660 260 820 440C720 420 540 420 420 520Z" fill="transparent" stroke="#222222" stroke-width="6" pointer-events="visiblePainted" style="pointer-events: visiblePainted;" />
    <path id="tail" class="coloring-part" data-part="tail" data-label="tail" d="M260 490L160 430L190 490L150 550Z" fill="transparent" stroke="#222222" stroke-width="6" pointer-events="visiblePainted" style="pointer-events: visiblePainted;" />
    <path id="fin" class="coloring-part" data-part="fin" data-label="fin" d="M510 320C520 220 580 230 580 290Z" fill="transparent" stroke="#222222" stroke-width="6" pointer-events="visiblePainted" style="pointer-events: visiblePainted;" />
    <path id="waves" class="coloring-part" data-part="waves" data-label="waves" d="M0 580Q256 520 512 580T1024 580V768H0Z" fill="transparent" stroke="#222222" stroke-width="6" pointer-events="visiblePainted" style="pointer-events: visiblePainted;" />
    <path id="splash" class="coloring-part" data-part="splash" data-label="splash" d="M295 520A25 25 0 1 0 345 520A25 25 0 1 0 295 520Z M720 530A20 20 0 1 0 760 530A20 20 0 1 0 720 530Z" fill="transparent" stroke="#222222" stroke-width="6" pointer-events="visiblePainted" style="pointer-events: visiblePainted;" />
  </g>
  <g class="coloring-lines" pointer-events="none" stroke="#222222" stroke-width="8" stroke-linecap="round" stroke-linejoin="round" fill="none">
    <path d="M760 410a12 12 0 1 1 -0.1 0" />
    <path d="M740 435q20 15 40 0" />
    <path d="M560 410C550 460 590 480 610 440" />
  </g>
</svg>