<svg viewBox="0 0 1376 768" xmlns="http://www.w3.org/2000/svg">
  <title>カピバラ</title>
  <g class="coloring-parts" fill="transparent" stroke="none">
    <path id="bg" data-part="bg" data-label="はいけい" class="coloring-part coloring-part--bg" d="M 0 233.067 C 0 454.579, 0.087 466.108, 1.750 465.586 C 9.171 463.260, 86.731 449.175, 120.112 444.092 C 143.613 440.513, 187.621 434.870, 217.763 431.570 C 229.974 430.234, 240.393 428.875, 240.916 428.552 C 241.958 427.908, 241.215 421.025, 239.954 419.634 C 239.522 419.158, 238.130 419.496, 236.862 420.384 C 233.968 422.411, 229.608 422.465, 227.642 420.499 C 223.473 416.330, 222.328 388.413, 225.469 367.500 C 238.691 279.476, 286.251 211.009, 359.817 174.092 C 429.099 139.324, 509.117 136.151, 601.126 164.523 C 615.615 168.991, 626.363 172.801, 672.717 189.901 C 719.156 207.031, 744.260 209.223, 775.500 198.876 C 785.967 195.409, 801.718 187.802, 810.980 181.740 L 817.461 177.499 816.983 172.999 C 816.230 165.904, 816.674 157.247, 818.053 152.168 C 821.619 139.027, 831.136 126.038, 840.585 121.415 C 845.232 119.141, 846.961 118.809, 851.850 119.253 C 863.479 120.307, 874.930 129.153, 885.339 145.122 L 890.929 153.697 904.214 154.315 C 911.521 154.654, 921.909 155.861, 927.297 156.996 C 932.685 158.131, 937.463 158.832, 937.915 158.552 C 938.367 158.273, 939.026 156.239, 939.379 154.033 C 940.400 147.647, 943.790 139.563, 947.464 134.751 C 951.219 129.834, 958.591 125.985, 964.185 126.022 C 974.747 126.092, 985.778 137.596, 991.657 154.672 C 993.923 161.256, 994.420 164.662, 994.785 176.104 L 995.219 189.709 1003.276 196.604 C 1016.983 208.335, 1039.878 234.473, 1053.606 254.065 C 1056.566 258.289, 1059.553 262.191, 1060.244 262.736 C 1060.935 263.282, 1068.700 264, 1077.500 264.332 C 1143.155 266.814, 1203.694 288.264, 1244.217 323.404 C 1249.012 327.561, 1253.512 330.742, 1254.217 330.471 C 1257.734 329.125, 1270.350 328.382, 1277.044 329.127 C 1290.720 330.648, 1305.111 337.220, 1309.186 343.805 C 1311.984 348.327, 1311.883 355.528, 1308.934 361.696 C 1305.731 368.394, 1295.897 377.760, 1287.361 382.244 L 1280.232 385.987 1277.446 397.244 C 1275.913 403.435, 1273.197 413, 1271.410 418.500 C 1269.623 424, 1268.462 428.784, 1268.830 429.130 C 1269.199 429.477, 1273.100 430.530, 1277.500 431.469 C 1301.543 436.602, 1328.508 443.914, 1357.188 453.076 L 1375.877 459.046 1376.278 462.273 C 1376.499 464.048, 1376.752 360.762, 1376.840 232.750 L 1377 0 688.500 0 L 0 0 0 233.067 M 0.492 233.500 C 0.492 361.650, 0.608 413.926, 0.750 349.670 C 0.892 285.413, 0.892 180.563, 0.750 116.670 C 0.608 52.776, 0.492 105.350, 0.492 233.500" fill="transparent" pointer-events="all" />
    <path id="part-1" data-part="part-1" data-label="パーツ 1" class="coloring-part " d="M 845.355 127.447 C 833.736 132.502, 824 149.581, 824 164.908 C 824 181.011, 831.241 193.447, 847.750 205.699 C 853.158 209.712, 855 211.674, 855 213.423 C 855 214.891, 854.285 215.954, 853.085 216.267 C 847.963 217.607, 830.073 202.675, 823.657 191.704 L 819.874 185.235 810.336 191.050 C 784.467 206.822, 755.292 214.385, 729.648 211.967 C 708.855 210.006, 695.973 206.466, 658 192.280 C 597.131 169.539, 565.149 160.519, 527 155.335 C 507.606 152.699, 460.583 152.713, 443.500 155.359 C 386.029 164.261, 336.716 189.343, 298.500 229.109 C 265.499 263.449, 243.787 307.902, 233.838 361.500 C 232.062 371.063, 231.599 377.297, 231.555 392.197 C 231.488 414.952, 232.178 416.569, 237.469 406.062 C 240.746 399.553, 241.343 398.905, 243.794 399.188 C 246.294 399.476, 246.518 399.880, 246.742 404.500 C 249.031 451.746, 267.424 482.835, 307.290 506.837 C 313.079 510.323, 318.794 514.216, 319.990 515.489 C 322.705 518.379, 323.611 524.617, 322.018 529.446 C 320.391 534.376, 322.010 536.087, 331.912 539.906 C 355.239 548.902, 382.311 547.581, 410.453 536.074 C 452.580 518.848, 481.774 485.244, 490.620 443.796 C 493.060 432.365, 493.076 410.417, 490.652 399.232 C 486.597 380.516, 477.881 360.995, 466.312 344.720 C 458.862 334.240, 438.795 314.162, 428.350 306.739 C 413.003 295.831, 393.537 287.154, 377.500 284.074 C 366.663 281.992, 367 282.141, 367 279.450 C 367 275.959, 369.114 275.466, 377.910 276.908 C 403.194 281.053, 429.363 294.945, 451.072 315.747 C 474.427 338.127, 489.366 363.362, 496.779 392.956 C 499.104 402.239, 499.425 405.533, 499.459 420.500 C 499.501 438.767, 498.238 447.363, 493.359 462 C 488.441 476.755, 478.587 493.820, 468.803 504.525 C 464.846 508.854, 464.018 510.317, 464.912 511.394 C 467.299 514.270, 497.028 522.720, 519.655 526.953 C 537.484 530.289, 557.041 531.978, 577.966 531.989 C 597.259 532, 624.872 530.367, 626.180 529.138 C 626.553 528.787, 624.828 525.823, 622.346 522.551 C 616.692 515.100, 613.834 509.489, 610.847 499.975 C 608.865 493.662, 608.502 490.401, 608.514 479 C 608.530 463.317, 610.575 453.666, 617.202 438 C 622.214 426.152, 624.518 422.789, 627.347 423.195 C 630.782 423.687, 630.443 426.475, 625.633 437.299 C 617.838 454.840, 615.709 463.534, 615.663 478 C 615.628 488.988, 615.953 491.494, 618.344 498.715 C 630.644 535.852, 669.462 552.723, 747.500 554.847 L 771.500 555.500 771.500 558.500 L 771.500 561.500 764 562.189 C 755.777 562.944, 738.607 562.427, 721.500 560.908 C 711.014 559.978, 710.154 560.050, 703.106 562.455 C 694.799 565.290, 688.467 568.722, 685.507 571.992 L 683.517 574.191 685.853 576.082 C 691.515 580.667, 705.494 581.062, 717.835 576.988 C 722.875 575.324, 724.469 575.145, 725.633 576.111 C 727.752 577.869, 726.899 581.292, 724 582.667 C 718.510 585.270, 704.717 587.277, 696.365 586.688 C 685.832 585.944, 684.279 587.185, 689.179 592.428 C 694.379 597.992, 701.556 599.461, 723 599.350 C 759.190 599.164, 794.700 590.715, 812.840 577.976 C 824.297 569.930, 829.066 562.456, 829.782 551.421 C 830.655 537.956, 825.015 526.689, 812.802 517.500 C 805.579 512.066, 771.761 492.493, 749.695 480.975 C 736.856 474.274, 735.911 473.585, 736.195 471.135 C 736.406 469.314, 737.171 468.404, 738.672 468.191 C 741.588 467.775, 763.549 479.232, 798.330 499.313 L 806.161 503.834 814.330 500.069 C 830.477 492.628, 840.640 485.448, 860.961 467.129 C 872.739 456.512, 880.149 450.986, 887.878 447.055 C 891.585 445.170, 892.045 444.620, 890.878 443.470 C 890.120 442.723, 879.502 437.401, 867.282 431.643 C 855.062 425.885, 841.418 419.006, 836.963 416.355 C 807.533 398.849, 788.370 374.848, 780.850 346.079 C 777.988 335.132, 777.366 317.825, 779.408 306 C 781.880 291.693, 782.586 290, 786.078 290 C 789.621 290, 789.771 291.424, 787.362 302.185 C 784.829 313.497, 785.095 333.297, 787.923 343.999 C 792.490 361.277, 801.140 375.792, 815.241 389.841 C 830.446 404.990, 836.238 408.408, 893 435.737 C 903.175 440.636, 916.225 447.362, 922 450.684 C 939.409 460.697, 952.719 467.292, 953.966 466.521 C 954.733 466.047, 954.915 464.458, 954.490 461.943 C 953.740 457.501, 955.363 448.653, 958.097 442.273 C 959.136 439.849, 965.419 429.731, 972.059 419.788 C 978.910 409.531, 987.397 395.176, 991.678 386.605 C 1006.809 356.316, 1015.448 347.307, 1033.964 342.509 C 1050.013 338.351, 1079.875 342.197, 1092.601 350.063 C 1097.643 353.179, 1097.841 350.874, 1093.480 339.822 C 1082.791 312.736, 1057.884 271.187, 1035.737 243.500 C 1002.644 202.126, 976.110 180.917, 942.688 169.122 C 927.852 163.887, 897.322 159.052, 895.698 161.680 C 895.386 162.185, 896.683 167.133, 898.581 172.676 C 900.479 178.219, 901.751 183.485, 901.409 184.377 C 901.040 185.339, 899.647 186, 897.990 186 C 895.409 186, 895.037 185.483, 893.139 179.250 C 886.484 157.400, 870.453 134.378, 857.786 128.480 C 851.774 125.681, 849.791 125.516, 845.355 127.447 M 848.667 136.667 C 846.856 138.477, 848.189 141.954, 851.471 143.982 C 859.400 148.883, 866.611 159.987, 868.885 170.799 C 870.169 176.903, 870.279 188.609, 869.109 194.648 C 868.201 199.335, 869.223 202, 871.927 202 C 875.495 202, 876.315 199.323, 876.774 186.199 C 877.375 168.970, 874.359 157.907, 866.108 147.076 C 860.497 139.712, 851.182 134.152, 848.667 136.667 M 907.482 241.660 C 905.501 243.642, 905.578 244.233, 908.584 250.166 C 915.891 264.585, 933.873 274.756, 950.364 273.798 C 955.140 273.521, 955.522 273.307, 955.817 270.744 C 956.182 267.573, 956.215 267.588, 945.895 266.259 C 932.051 264.475, 919.912 256.554, 914.925 246.048 C 912.422 240.776, 909.871 239.272, 907.482 241.660" fill="transparent" pointer-events="all" />
    <path id="bg-1" data-part="bg-1" data-label="はいけい" class="coloring-part coloring-part--bg" d="M 228 437.585 C 221.675 438.342, 206.600 440.120, 194.500 441.535 C 138.952 448.032, 68.013 459.487, 8.250 471.611 L 0 473.285 0 530.270 L 0 587.256 4.250 586.566 C 106.520 569.961, 214.151 578.544, 311.116 611.036 C 396.382 639.608, 468.853 682.836, 537.743 746.218 C 546.127 753.931, 554.563 761.988, 556.490 764.121 L 559.995 768 639.609 768 L 719.222 768 727.525 762.985 C 745.714 751.998, 773.332 740.305, 798 733.145 C 803.775 731.469, 822.900 726.237, 840.500 721.518 C 896.009 706.634, 917.188 699.669, 965.883 680.286 C 1022.468 657.762, 1047.570 649.568, 1079.975 643.044 C 1103.706 638.265, 1120.764 636.618, 1146.500 636.620 C 1169.886 636.622, 1181.296 637.588, 1199.887 641.140 C 1205.600 642.232, 1210.643 642.757, 1211.093 642.307 C 1211.543 641.857, 1209.898 635.191, 1207.438 627.494 C 1200.901 607.043, 1195.439 584.427, 1192.420 565.314 C 1190.960 556.066, 1189.591 547.897, 1189.379 547.160 C 1189.117 546.249, 1187.473 547.080, 1184.247 549.754 C 1145.569 581.813, 1096.706 601.566, 1039 608.471 C 1020.575 610.675, 1021.777 610.201, 1017.645 616.896 C 1007.741 632.942, 991.143 640.558, 978.206 634.993 C 969.925 631.431, 963.905 623.055, 960.640 610.553 C 959.802 607.343, 958.718 604.318, 958.232 603.832 C 957.747 603.347, 950.714 601.400, 942.604 599.508 C 905.737 590.903, 870.470 575.990, 848.247 559.609 C 839.449 553.124, 838.723 553.319, 835.040 563.165 C 827.941 582.136, 804.987 595.343, 766.897 602.370 C 731.540 608.893, 700.151 608.271, 686.830 600.784 C 681.550 597.817, 678.285 591.130, 679.639 586.056 C 680.422 583.125, 680.262 581.853, 678.810 579.462 C 675.107 573.366, 677.398 567.640, 685.651 562.360 C 689.045 560.189, 690.847 558.447, 690.284 557.884 C 689.776 557.376, 684.892 555.877, 679.431 554.553 C 663.154 550.606, 648.762 544.841, 638.913 538.324 C 635.193 535.862, 635.185 535.861, 622.846 537.014 C 616.055 537.648, 609.889 538.359, 609.143 538.593 C 608.203 538.888, 608.926 540.283, 611.490 543.120 C 615.439 547.491, 618 552.585, 618 556.067 C 618 562.673, 611.746 568, 603.992 568 C 600.603 568, 599.829 568.431, 598.459 571.079 C 594.707 578.336, 586.305 578.555, 560.132 572.078 C 551.129 569.851, 543.337 568.292, 542.816 568.613 C 542.276 568.947, 542.518 569.915, 543.380 570.867 C 545.794 573.535, 548.954 581.236, 548.974 584.500 C 548.999 588.512, 545.643 593.803, 542.250 595.104 C 540.737 595.684, 536.610 596.010, 533.077 595.829 C 526.750 595.505, 526.642 595.543, 525.885 598.357 C 524.284 604.304, 518.466 608, 510.706 608 C 508.309 608, 497.607 605.793, 486.924 603.094 C 466.853 598.026, 443.361 594.256, 414.500 591.473 C 340.155 584.303, 320.480 580.144, 311.266 569.650 C 304.287 561.701, 304.330 553.112, 311.439 535.578 C 314.951 526.915, 316.010 523.224, 315.311 522.078 C 314.782 521.210, 312.259 519.150, 309.704 517.500 C 307.149 515.850, 300.514 511.575, 294.958 508 C 277.956 497.059, 264.827 483.473, 255.978 467.663 C 254.181 464.453, 252.078 461.583, 251.304 461.287 C 247.621 459.873, 196.160 472.614, 169 481.663 C 135.152 492.940, 104.397 506.522, 79.944 520.992 C 67 528.652, 63.722 529.414, 63.197 524.888 C 62.927 522.566, 63.873 521.687, 71.697 516.986 C 115.477 490.679, 178.090 467.494, 236.500 455.961 C 242.550 454.766, 247.755 453.635, 248.067 453.448 C 248.379 453.261, 247.423 449.371, 245.942 444.804 C 243.892 438.481, 242.803 436.465, 241.375 436.354 C 240.344 436.273, 234.325 436.827, 228 437.585" fill="transparent" pointer-events="all" />
    <path id="bg-2" data-part="bg-2" data-label="はいけい" class="coloring-part coloring-part--bg" d="M 84.500 586.050 C 59.767 587.061, 9.613 592.248, 1.750 594.609 C 0.101 595.104, 0 600.117, 0 681.567 L 0 768 274.722 768 C 543.964 768, 549.405 767.962, 547.472 766.114 C 546.387 765.076, 540.100 759.166, 533.500 752.980 C 432.380 658.205, 309.723 602.724, 170 588.561 C 155.739 587.115, 112.515 584.846, 105.500 585.175 C 103.850 585.252, 94.400 585.646, 84.500 586.050" fill="transparent" pointer-events="all" />
    <path id="part-2" data-part="part-2" data-label="パーツ 2" class="coloring-part " d="M 1067.514 271.977 C 1067.162 272.547, 1069.089 276.723, 1071.796 281.257 C 1085.568 304.323, 1097.623 328.330, 1102.341 342.086 C 1107.880 358.233, 1109.197 375.387, 1105.904 388.468 C 1105.223 391.172, 1105.102 393.501, 1105.615 394.014 C 1106.128 394.527, 1111.543 392.402, 1118.500 388.957 C 1136.795 379.899, 1160.854 371.050, 1167.281 371.015 C 1170.354 370.998, 1171.894 373.360, 1170.377 375.764 C 1169.860 376.584, 1165.400 378.478, 1160.468 379.973 C 1101.198 397.930, 1039.438 444.907, 1002.946 499.792 C 998.085 507.103, 993.828 513.966, 993.487 515.042 C 993.063 516.377, 991.967 517, 990.040 517 C 983.948 517, 985.348 512.487, 996.865 495 C 1000.668 489.225, 1003.544 484.107, 1003.254 483.626 C 1002.965 483.145, 999.847 483.047, 996.324 483.408 C 988.226 484.237, 974.829 482.502, 964.500 479.284 C 954.388 476.135, 938.811 468.723, 919.039 457.655 C 910.536 452.895, 903.087 449, 902.486 449 C 899.662 449, 884.745 457.309, 878.232 462.509 C 871.273 468.066, 871.030 468.402, 872.506 470.407 C 882.290 483.691, 885.953 492.833, 885.967 504 C 885.983 517.109, 882.314 526.616, 873.740 535.682 C 868.867 540.834, 858.638 548.047, 853.354 550.055 C 851.106 550.910, 850.953 551.241, 852.141 552.689 C 856.654 558.189, 885.027 573.266, 904.446 580.483 C 916.918 585.118, 941.813 592.273, 953 594.438 C 965.475 596.851, 965.427 596.818, 966.751 603.935 C 969.155 616.862, 976.993 628.158, 984.541 629.574 C 997.796 632.060, 1014.789 613.812, 1022.043 589.302 C 1023.409 584.686, 1025.134 583.466, 1028.072 585.039 C 1030.483 586.329, 1030.477 587.301, 1028.013 594.461 C 1026.921 597.636, 1026.272 600.632, 1026.573 601.117 C 1027.396 602.451, 1032.109 602.191, 1047.500 599.963 C 1100.403 592.306, 1144.187 573.182, 1182.834 540.853 L 1188.168 536.391 1188.444 521.946 C 1188.596 514.001, 1189.238 505.872, 1189.871 503.882 C 1191.835 497.706, 1195.231 493.616, 1199.688 492.063 C 1205.481 490.045, 1210.177 491.561, 1219.587 498.490 C 1221.603 499.975, 1221.939 499.629, 1229.514 488.264 C 1238.548 474.709, 1248.389 456.677, 1254.217 443 C 1262.067 424.578, 1272.048 392.696, 1270.455 391.134 C 1270.099 390.785, 1267.488 390.500, 1264.654 390.500 C 1259.633 390.500, 1259.500 390.425, 1259.500 387.598 C 1259.500 384.831, 1259.896 384.573, 1268 382.044 C 1283.281 377.275, 1294.650 369.773, 1300.902 360.335 C 1305.020 354.116, 1304.980 350.323, 1300.750 346.304 C 1291.575 337.585, 1272.879 333.818, 1257.167 337.523 C 1253.684 338.344, 1250.309 338.704, 1249.667 338.324 C 1249.025 337.944, 1245.125 334.629, 1241 330.958 C 1205.393 299.271, 1157.528 279.738, 1100.500 273.622 C 1079.130 271.330, 1068.250 270.787, 1067.514 271.977" fill="transparent" pointer-events="all" />
    <path id="bg-3" data-part="bg-3" data-label="はいけい" class="coloring-part coloring-part--bg" d="M 1120 644.668 C 1071.091 649.524, 1040.336 658.364, 960.558 690.493 C 921.756 706.119, 896.411 714.180, 830.012 732.013 C 799.507 740.206, 782.894 745.426, 767.870 751.538 C 756.888 756.006, 735 766.641, 735 767.508 C 735 767.779, 840.412 767.976, 969.250 767.946 L 1203.500 767.893 1200.500 765.497 C 1198.850 764.180, 1192.775 759.427, 1187 754.935 C 1163.395 736.576, 1135.565 704.496, 1124.963 683.427 C 1120.602 674.759, 1119.655 671.905, 1119.247 666.203 C 1118.880 661.078, 1119.167 658.577, 1120.396 656.202 C 1127.331 642.791, 1158.104 649.850, 1193.968 673.076 C 1206.365 681.105, 1223.577 693.941, 1233.184 702.320 C 1237.410 706.007, 1241.105 708.638, 1241.396 708.169 C 1241.686 707.699, 1238.701 701.056, 1234.761 693.407 C 1230.822 685.758, 1225.012 673.443, 1221.850 666.041 C 1215.379 650.889, 1216.554 651.909, 1202.131 648.931 C 1184.260 645.241, 1169.581 643.993, 1146.030 644.160 C 1133.638 644.248, 1121.925 644.476, 1120 644.668" fill="transparent" pointer-events="all" />
    <path id="bg-4" data-part="bg-4" data-label="はいけい" class="coloring-part coloring-part--bg" d="M 1265.108 437.404 C 1264.623 438.007, 1262.739 442.100, 1260.921 446.500 C 1254.140 462.913, 1241.373 485.899, 1231.246 499.928 L 1227.327 505.357 1234.836 514.928 C 1262.177 549.781, 1290.094 605.098, 1308.051 660 C 1310.659 667.975, 1313.177 674.500, 1313.647 674.500 C 1314.116 674.500, 1314.799 666.625, 1315.164 657 C 1316.317 626.580, 1320.538 600.603, 1328.038 577.763 C 1335.095 556.270, 1343.351 543.473, 1351.792 540.944 C 1359.733 538.565, 1367.854 544.975, 1372.494 557.283 C 1373.485 559.913, 1374.680 562.302, 1375.148 562.592 C 1375.617 562.881, 1376 541.512, 1376 515.106 L 1376 467.093 1356.250 460.636 C 1319.714 448.690, 1266.865 435.219, 1265.108 437.404" fill="transparent" pointer-events="all" />
    <path id="bg-5" data-part="bg-5" data-label="はいけい" class="coloring-part coloring-part--bg" d="M 1200.144 500.327 C 1196.707 504.467, 1195.724 509.596, 1195.797 523 C 1196.046 569, 1212.931 632.897, 1238.180 683.388 C 1250.004 707.033, 1267.018 734.843, 1283.675 757.750 L 1291.129 768 1308.564 768 C 1324.505 768, 1326 767.850, 1325.995 766.250 C 1325.985 763.323, 1317.253 720.891, 1313.964 707.791 C 1297.794 643.388, 1273.738 586.633, 1242.320 538.765 C 1223.140 509.541, 1205.693 493.641, 1200.144 500.327" fill="transparent" pointer-events="all" />
    <path id="bg-6" data-part="bg-6" data-label="はいけい" class="coloring-part coloring-part--bg" d="M 1348.976 552.144 C 1342.017 559.315, 1334.669 577.524, 1329.589 600.188 C 1319.473 645.323, 1319.790 693.147, 1330.580 749.300 C 1332.461 759.090, 1334 767.303, 1334 767.550 C 1334 767.798, 1341.875 768, 1351.500 768 C 1361.125 768, 1369 767.815, 1369 767.588 C 1369 767.361, 1369.679 763.649, 1370.508 759.338 C 1375.485 733.472, 1376 724.628, 1375.995 665.134 C 1375.990 613.761, 1375.804 607.237, 1373.993 594.904 C 1370.611 571.869, 1366.135 557.406, 1360.557 551.492 C 1358.746 549.571, 1356.304 548, 1355.131 548 C 1353.944 548, 1351.215 549.837, 1348.976 552.144" fill="transparent" pointer-events="all" />
    <path id="part-3" data-part="part-3" data-label="パーツ 3" class="coloring-part " d="M 1035.251 346.545 C 1027.557 348.617, 1022.330 351.579, 1016.170 357.360 C 1009.166 363.933, 1004.118 371.759, 994.573 390.838 C 990.253 399.473, 982.259 413.022, 976.283 421.838 C 961.766 443.254, 959.500 448.225, 959.500 458.645 C 959.500 468.728, 960.583 470.178, 970.428 473.275 C 982.601 477.105, 1010.675 475.887, 1011.347 471.500 C 1011.431 470.950, 1009.206 470.220, 1006.402 469.878 C 996.703 468.694, 987.713 464.793, 979.230 458.088 C 973.538 453.588, 971.700 450.946, 972.611 448.572 C 973.706 445.717, 978.057 446.798, 982.702 451.080 C 991.827 459.491, 1006.255 464.239, 1017.545 462.546 C 1021.755 461.914, 1023.026 461.056, 1028.685 455.024 C 1041.944 440.891, 1068.960 418.428, 1086.236 407.172 C 1091.365 403.830, 1093.197 401.964, 1094.468 398.788 C 1096.594 393.474, 1094.923 391.213, 1092.293 395.846 C 1090.232 399.478, 1087.548 400.699, 1085.452 398.960 C 1083.329 397.198, 1083.664 394.775, 1086.638 390.390 C 1089.467 386.218, 1091.620 384.375, 1096.447 381.993 C 1099.464 380.505, 1099.503 380.384, 1099.789 371.750 C 1099.948 366.936, 1099.605 362.130, 1099.024 361.045 C 1096.266 355.892, 1081.786 349.025, 1068.162 346.409 C 1058.895 344.630, 1042.106 344.699, 1035.251 346.545 M 1030.250 365.031 C 1028.608 365.691, 1028 366.758, 1028 368.975 L 1028 372.015 1033.895 371.758 C 1042.413 371.385, 1045.056 374.049, 1048.023 386 C 1049.716 392.817, 1051.556 394.443, 1054.662 391.866 C 1057.620 389.410, 1054.102 375.088, 1049.212 369.680 C 1044.907 364.920, 1035.975 362.730, 1030.250 365.031" fill="transparent" pointer-events="all" />
    <path id="bg-7" data-part="bg-7" data-label="はいけい" class="coloring-part coloring-part--bg" d="M 1128.223 658.557 C 1119.180 664.890, 1139.092 698.393, 1170.401 729.525 C 1184.281 743.327, 1194.999 752.317, 1209.190 762.061 L 1217.881 768.028 1249.457 767.764 L 1281.034 767.500 1273.034 756.354 C 1264.406 744.332, 1240.656 719.105, 1226.487 706.913 C 1199.253 683.479, 1166.691 663.862, 1146.224 658.558 C 1138.507 656.558, 1131.076 656.558, 1128.223 658.557" fill="transparent" pointer-events="all" />
    <path id="part-4" data-part="part-4" data-label="パーツ 4" class="coloring-part " d="M 417.728 541.030 C 411.566 544.363, 394.185 549.795, 384 551.570 C 372.490 553.577, 349.860 553.031, 340.500 550.522 C 333.317 548.596, 324.254 545.159, 321.527 543.326 C 318.323 541.172, 317.013 541.757, 314.973 546.250 C 310.061 557.071, 314.829 566.343, 327.908 571.404 C 338.336 575.440, 364.073 579.331, 408 583.512 C 445.630 587.093, 466.622 590.347, 488.840 596.042 C 499.478 598.769, 509.465 601, 511.035 601 C 512.604 601, 515.085 599.971, 516.547 598.713 C 519.118 596.502, 519.157 596.311, 517.733 592.903 C 514.829 585.952, 501.470 577.255, 487.250 573.056 C 480.765 571.141, 480 570.653, 480 568.426 C 480 564.887, 482.412 564.382, 489.944 566.348 C 499.561 568.857, 511.937 575.348, 518.631 581.394 C 523.788 586.052, 525.334 586.860, 531.373 588.055 C 538.114 589.390, 538.280 589.372, 540.101 587.124 C 541.805 585.020, 541.836 584.532, 540.483 581.166 C 538.255 575.623, 525.648 564.199, 516.301 559.254 C 497.721 549.422, 469.505 543.126, 428 539.549 C 422.646 539.088, 420.835 539.349, 417.728 541.030" fill="transparent" pointer-events="all" />
    <path id="part-5" data-part="part-5" data-label="パーツ 5" class="coloring-part " d="M 452.351 520.312 C 450.070 522.130, 445.652 525.374, 442.533 527.522 C 435.512 532.358, 436.366 533.409, 448.109 534.389 C 476.581 536.763, 506.746 544.910, 524.198 554.938 C 529.454 557.958, 533.007 559.140, 540.698 560.429 C 546.089 561.333, 556.575 563.592, 564 565.450 C 583.072 570.222, 587.008 570.628, 590.056 568.138 L 592.500 566.141 588.644 562.169 C 585.396 558.825, 576.768 554.023, 569.750 551.654 C 567.582 550.922, 567.470 547.685, 569.553 545.956 C 570.828 544.898, 572.039 544.962, 576.329 546.315 C 583.116 548.454, 592.877 554.337, 595.822 558.062 C 597.644 560.366, 598.944 561, 601.850 561 C 606.543 561, 610 558.634, 610 555.421 C 610 552.551, 603.550 545.121, 598.175 541.799 C 594.840 539.738, 593.280 539.572, 575.546 539.395 C 547.276 539.113, 523.775 536.254, 498 529.960 C 488.441 527.626, 466.682 520.891, 458 517.580 C 457.143 517.254, 454.721 518.425, 452.351 520.312" fill="transparent" pointer-events="all" />
    <path id="part-6" data-part="part-6" data-label="パーツ 6" class="coloring-part " d="M 856.465 481.671 C 845.811 490.823, 832.536 499.705, 822.134 504.642 L 814.557 508.237 820.667 513.869 C 830.825 523.230, 835.422 531.341, 836.893 542.500 C 837.496 547.080, 837.759 547.477, 840.026 547.224 C 845.267 546.639, 858.989 538.784, 865.821 532.459 C 874.120 524.776, 877.824 517.485, 878.693 507.125 C 879.441 498.204, 877.213 490.981, 870.719 481.272 C 868.044 477.272, 865.752 474, 865.625 474 C 865.498 474, 861.376 477.452, 856.465 481.671" fill="transparent" pointer-events="all" />
    <path id="part-7" data-part="part-7" data-label="パーツ 7" class="coloring-part " d="M 961.500 133.729 C 955.030 135.264, 947.695 146.459, 946.398 156.778 L 945.735 162.057 950.117 163.755 C 956.862 166.368, 972.770 174.398, 979.990 178.834 C 983.560 181.027, 986.822 182.610, 987.240 182.352 C 988.546 181.545, 988.072 171.218, 986.385 163.697 C 982.330 145.623, 970.651 131.559, 961.500 133.729" fill="transparent" pointer-events="all" />
  </g>
  <g class="coloring-lines" pointer-events="none">
    <path d="M 842.885 119.326 C 832.564 123.168, 822.392 135.650, 817.887 150 C 815.814 156.602, 815.001 170.277, 816.416 174.735 C 817.018 176.633, 816.290 177.481, 811.309 180.681 C 795.219 191.018, 772.688 200.183, 756.355 203.035 C 745.473 204.935, 723.149 203.759, 709.500 200.567 C 695.631 197.324, 688.971 195.112, 655 182.472 C 577.979 153.812, 537.918 144.948, 485 144.860 C 450.619 144.803, 425.141 148.680, 395.278 158.513 C 350.833 173.148, 310.547 200.322, 281.145 235.500 C 246.616 276.812, 223.138 340.459, 222.848 393.541 C 222.755 410.561, 224.097 418.144, 227.702 420.980 C 230.951 423.536, 234.037 423.545, 237.261 421.009 L 239.792 419.019 240.235 423.259 C 240.479 425.592, 240.558 427.655, 240.411 427.845 C 240.264 428.035, 226.499 429.716, 209.822 431.581 C 141.995 439.167, 75.716 449.436, 16 461.612 C -1.440 465.168, 0 464.452, 0 469.567 C 0 472.005, 0.458 474, 1.017 474 C 1.577 474, 6.190 473.107, 11.267 472.016 C 53.176 463.008, 123.435 451.405, 177.500 444.562 C 202.012 441.460, 242.303 436.934, 242.494 437.260 C 242.571 437.392, 243.754 440.984, 245.122 445.241 L 247.611 452.982 244.055 453.590 C 223.345 457.130, 184.605 467.400, 159.500 476.005 C 129.832 486.174, 94.824 502.061, 73 515.261 C 63.514 520.998, 62.500 521.893, 62.500 524.532 C 62.500 526.750, 63.101 527.659, 65 528.315 C 67.094 529.038, 69.366 528.090, 79 522.473 C 117.106 500.256, 160.200 483.246, 210.500 470.569 C 222.050 467.657, 235.961 464.442, 241.414 463.424 C 251.071 461.619, 251.355 461.620, 252.414 463.429 C 266.052 486.749, 280.237 500.814, 304.101 514.681 C 315.861 521.513, 315.859 521.509, 312.524 530.242 C 311 534.234, 308.684 540.333, 307.376 543.795 C 303.068 555.210, 304.842 565.142, 312.371 571.752 C 323.282 581.333, 339.769 584.943, 400 590.944 C 453.174 596.242, 465.023 598.116, 495 605.972 C 507.173 609.162, 513.087 609.674, 517.685 607.936 C 521.625 606.448, 525.792 602.222, 526.501 598.997 C 527.092 596.304, 527.172 596.279, 533.799 596.734 C 539.649 597.136, 540.944 596.892, 544 594.814 C 550.943 590.094, 551.547 581.506, 545.557 572.680 L 543.109 569.072 546.304 569.685 C 548.062 570.022, 555.575 571.829, 563 573.700 C 586.032 579.505, 594.758 579.102, 598.773 572.048 C 600.227 569.492, 601.110 569.012, 604.364 569.006 C 611.736 568.994, 619 562.621, 619 556.164 C 619 552.709, 617.037 548.696, 612.998 543.895 L 609.125 539.289 621.996 538.113 L 634.867 536.938 643.550 541.916 C 655.916 549.007, 666.267 552.583, 688.872 557.576 C 691.017 558.049, 690.732 558.407, 685.906 561.300 C 676.869 566.717, 673.994 573.213, 677.851 579.500 C 679.296 581.856, 679.482 583.110, 678.715 585.343 C 677.356 589.302, 679.251 595.030, 683.195 598.886 C 693.510 608.971, 725.655 610.758, 765.500 603.461 C 798.377 597.441, 819.901 587.267, 830.669 572.656 C 833.038 569.442, 835.510 564.942, 836.163 562.656 C 837.550 557.799, 838.738 556, 840.558 556 C 841.280 556, 845.518 558.612, 849.974 561.804 C 871.557 577.264, 904.333 591.121, 939 599.442 C 959.063 604.259, 958.583 604.042, 959.368 608.664 C 961.169 619.283, 968.048 630.180, 975.845 634.763 C 979.727 637.046, 981.662 637.498, 987.500 637.490 C 993.554 637.482, 995.352 637.020, 1000.803 634.073 C 1007.440 630.484, 1015.343 622.683, 1019.463 615.653 L 1021.898 611.498 1037.070 609.656 C 1094.379 602.699, 1140.921 584.716, 1178.813 554.889 L 1188.482 547.278 1190.676 561.466 C 1193.605 580.411, 1197.931 598.982, 1204.454 620.622 C 1207.418 630.455, 1210.151 639.288, 1210.528 640.250 C 1211.363 642.380, 1210.991 642.391, 1202.030 640.506 C 1185.878 637.109, 1169.556 635.678, 1147 635.683 C 1120.831 635.689, 1103.222 637.427, 1078.952 642.397 C 1046.095 649.126, 1021.260 657.277, 964.500 679.959 C 915.813 699.415, 896.451 705.646, 826.208 724.463 C 776.248 737.847, 747.801 748.843, 725.500 763.391 L 718.500 767.957 726.659 767.979 C 734.789 768, 734.870 767.974, 749.896 760.616 C 773.913 748.854, 788.185 744.058, 842.500 729.494 C 902.213 713.483, 921.653 707.082, 972.583 686.667 C 1033.013 662.443, 1061.110 653.880, 1100 647.832 C 1112.835 645.835, 1118.232 645.576, 1147 645.575 C 1177.986 645.574, 1180.175 645.699, 1194 648.255 C 1216.910 652.493, 1214.780 651.219, 1219.900 663.740 C 1222.320 669.658, 1228.253 682.281, 1233.083 691.791 L 1241.866 709.082 1235.837 703.791 C 1209.501 680.681, 1175.427 659.017, 1154.725 652.221 C 1136.528 646.248, 1123.821 647.645, 1119.449 656.099 C 1110.102 674.174, 1146.550 725.427, 1194.643 761.835 L 1202.787 768 1211.081 768 L 1219.375 768 1210.574 761.995 C 1189.883 747.875, 1172.023 731.957, 1156.403 713.712 C 1139.490 693.958, 1128.197 675.105, 1127.226 665.004 C 1126.617 658.666, 1128.525 657.521, 1138.429 658.280 C 1155.169 659.563, 1182.220 673.465, 1212.500 696.347 C 1229.312 709.051, 1261.845 741.795, 1272.500 756.736 L 1280.500 767.954 1286.257 767.977 L 1292.014 768 1286.662 760.750 C 1243.599 702.421, 1215.139 639.862, 1202.615 576 C 1196.695 545.810, 1194.810 513.853, 1198.441 505.221 C 1200.832 499.535, 1202.618 498.695, 1207.551 500.937 C 1216.167 504.851, 1227.499 517.546, 1241.528 539 C 1273.054 587.212, 1297.700 645.288, 1312.951 707.296 C 1316.844 723.125, 1325 762.692, 1325 765.748 C 1325 767.782, 1325.481 768, 1329.975 768 C 1334.856 768, 1334.941 767.948, 1334.453 765.250 C 1334.180 763.737, 1332.615 755.366, 1330.975 746.648 C 1322 698.921, 1320.744 657.704, 1327.059 618.125 C 1331.122 592.662, 1339.121 567.200, 1346.488 556.283 C 1352.311 547.654, 1356.360 546.753, 1360.934 553.068 C 1366.320 560.503, 1370.808 577.094, 1373.900 601 L 1375.646 614.500 1376.185 601.500 C 1376.481 594.350, 1376.446 582.398, 1376.107 574.940 C 1375.513 561.843, 1375.363 561.118, 1371.727 553.763 C 1366.098 542.373, 1359.456 537.931, 1351.387 540.159 C 1332.523 545.368, 1314.204 606.366, 1313.954 664.804 L 1313.909 675.500 1310.647 665 C 1293.068 608.404, 1260.707 544.692, 1231.857 509.877 L 1228.026 505.254 1231.485 500.723 C 1240.680 488.681, 1252.473 467.685, 1261.446 447.383 C 1264.920 439.522, 1266.191 437.563, 1267.657 437.809 C 1285.723 440.833, 1345.929 457.308, 1367.691 465.182 C 1374.790 467.751, 1375.947 468.503, 1376.374 470.823 C 1376.644 472.295, 1376.660 470.151, 1376.408 466.059 C 1376.156 461.966, 1375.822 458.488, 1375.664 458.331 C 1375.507 458.174, 1366.181 455.085, 1354.939 451.468 C 1333.166 444.461, 1302.500 436.070, 1282 431.510 C 1275.125 429.980, 1269.390 428.642, 1269.255 428.536 C 1269.121 428.431, 1270.316 424.483, 1271.911 419.763 C 1273.506 415.044, 1276.247 405.610, 1278.002 398.798 L 1281.192 386.413 1286.458 383.656 C 1294.415 379.490, 1303.034 372.102, 1307.500 365.619 C 1311.278 360.134, 1311.500 359.404, 1311.500 352.454 C 1311.500 345.267, 1311.411 345.005, 1307.648 341.152 C 1302.535 335.915, 1295.827 332.385, 1286.415 329.978 C 1277.851 327.788, 1262.975 327.324, 1256.749 329.053 C 1253.015 330.090, 1252.960 330.061, 1244.249 322.494 C 1206.597 289.787, 1151.681 269.028, 1089.605 264.037 C 1082.512 263.467, 1073.062 262.985, 1068.605 262.966 L 1060.500 262.932 1055.286 255.216 C 1043.222 237.361, 1017.886 208.274, 1004.130 196.488 L 996 189.521 995.983 179.011 C 995.949 158.796, 990.159 142.991, 979 132.661 C 970.154 124.471, 964.038 123.184, 955.110 127.633 C 946.830 131.759, 940.290 142.215, 938.492 154.202 C 937.822 158.676, 937.713 158.797, 935.150 157.924 C 929.030 155.841, 915.668 153.875, 903.760 153.307 L 891.019 152.699 886.287 145.099 C 873.929 125.252, 855.832 114.505, 842.885 119.326 M 844.461 128.830 C 839.221 131.273, 832.793 138.643, 828.763 146.829 C 825.965 152.513, 825.512 154.562, 825.207 162.921 C 824.924 170.682, 825.251 173.623, 826.933 178.419 C 830.761 189.337, 838.427 198.629, 850.308 206.752 C 852.924 208.541, 855.346 210.739, 855.691 211.638 C 856.543 213.858, 854.769 216.430, 852.112 216.824 C 846.719 217.625, 829.125 202.744, 823.050 192.244 L 819.600 186.281 814.341 189.645 C 805.731 195.152, 790.190 202.557, 779.240 206.368 C 762.728 212.116, 754.180 213.332, 735 212.664 C 711.747 211.855, 700.289 208.995, 659.895 193.923 C 602.117 172.364, 575.102 164.233, 542.500 158.588 C 504.770 152.055, 461.467 152.217, 428.436 159.013 C 391.342 166.646, 356.559 182.187, 327.090 204.295 C 315.436 213.037, 296.074 231.626, 287.294 242.500 C 261.217 274.796, 242.925 316.355, 234.476 362.500 C 232.585 372.827, 231.349 406.304, 232.726 409.883 C 233.575 412.090, 233.896 411.758, 237.071 405.383 C 239.728 400.050, 241.050 398.422, 242.944 398.155 C 246.586 397.641, 248 400.399, 248 408.015 C 248 424.415, 254.855 449.449, 263.106 463.176 C 273.849 481.051, 284.756 491.633, 306.747 505.520 C 322.074 515.198, 324.513 518.106, 323.503 525.500 C 322.242 534.732, 322.072 534.290, 328 537.194 C 375.699 560.560, 452.010 528.545, 479.213 473.754 C 495.015 441.928, 495.993 408.636, 482.123 374.679 C 474.545 356.124, 464.189 341.083, 447.550 324.461 C 426.281 303.214, 403.440 290.400, 377.332 285.066 C 367.917 283.143, 366.047 282.132, 366.015 278.950 C 365.968 274.200, 370.654 273.956, 386.252 277.896 C 413.001 284.651, 435.840 298.519, 457.500 321.158 C 484.143 349.005, 498.897 381.268, 500.644 415.500 C 502.281 447.594, 490.468 481.503, 469.561 504.728 C 466.972 507.603, 465.128 510.398, 465.462 510.939 C 466.220 512.165, 484.186 518.010, 497.500 521.362 C 511.572 524.905, 534.228 528.721, 549.411 530.106 C 562.522 531.302, 609.799 530.713, 620.762 529.218 L 626.024 528.500 620.609 521.313 C 603.239 498.258, 602.559 466.576, 618.708 432.722 C 623.550 422.572, 626.159 420.227, 629.513 423.011 C 631.628 424.766, 631.365 427.347, 628.493 433.013 C 618.175 453.376, 613.944 475.811, 617.382 491.930 C 618.254 496.016, 620.862 503.183, 623.177 507.857 C 638.042 537.864, 676.527 552.174, 746.500 553.709 C 760.224 554.011, 771.035 554.666, 771.750 555.241 C 773.338 556.516, 773.366 560.234, 771.800 561.800 C 770.248 563.352, 736.659 563.434, 721.644 561.923 C 711.738 560.926, 710.447 561.005, 704.307 562.989 C 695.904 565.704, 689.063 569.161, 686.513 571.982 C 684.543 574.162, 684.543 574.193, 686.482 575.611 C 692.018 579.658, 706.057 579.886, 717.964 576.121 C 723.993 574.214, 724.550 574.188, 726.258 575.733 C 728.990 578.206, 728.026 581.243, 723.862 583.279 C 715.860 587.192, 698.652 589.194, 691.257 587.074 C 687.430 585.976, 686.550 586.918, 688.141 590.410 C 694.365 604.070, 764.658 600.081, 800.413 584.039 C 819.974 575.263, 828.958 564.233, 828.954 549 C 828.951 536.542, 823.726 526.612, 812.782 518.263 C 806.767 513.676, 770.390 492.721, 749.500 481.812 C 737.261 475.420, 735.461 474.163, 735.190 471.817 C 734.966 469.879, 735.493 468.807, 737.087 467.954 C 738.941 466.961, 740.268 467.227, 745.397 469.618 C 753.532 473.410, 780.754 488.154, 794.758 496.352 L 806.016 502.942 813.577 499.497 C 829.680 492.158, 840.673 484.506, 859.500 467.527 C 872.024 456.233, 876.491 452.752, 884.373 448.146 L 891.220 444.145 886.360 441.692 C 883.687 440.344, 874.075 435.766, 865 431.520 C 836.165 418.029, 820.617 408.037, 807.829 394.782 C 783.710 369.781, 772.989 337.263, 778.482 305.766 C 779.296 301.093, 780.536 295.522, 781.236 293.385 C 782.392 289.855, 782.828 289.500, 786.004 289.500 C 789.432 289.500, 789.498 289.578, 789.403 293.500 C 789.350 295.700, 788.520 302.225, 787.559 308 C 780.400 351, 804.363 391.032, 851.453 414.738 C 856.429 417.243, 870.794 424.157, 883.375 430.102 C 895.956 436.048, 912.156 444.261, 919.375 448.355 C 936.929 458.309, 951.440 466, 952.667 466 C 953.236 466, 953.694 462.875, 953.730 458.750 C 953.824 447.984, 956.491 441.869, 969.750 422.019 C 976.260 412.274, 985.765 396.164, 991.187 385.688 C 1001.984 364.825, 1005.643 359.316, 1013.300 352.394 C 1023.821 342.884, 1035.366 339.527, 1054.994 340.271 C 1070.240 340.848, 1080.553 343.120, 1090.212 348.028 L 1096.240 351.091 1095.545 348.296 C 1091.775 333.134, 1068.741 290.514, 1049.449 263 C 1033.905 240.833, 1014.125 217.857, 998.500 203.822 C 970.548 178.713, 939.367 164.815, 905.586 162.408 C 896.108 161.733, 895.705 161.786, 896.420 163.601 C 900.720 174.515, 902.977 183.174, 901.999 185.001 C 900.934 186.991, 897.496 187.634, 895.398 186.235 C 894.793 185.831, 893.264 182.350, 892.001 178.500 C 886.772 162.556, 877.423 146.349, 868.038 136.959 C 859.190 128.106, 851.616 125.495, 844.461 128.830 M 961 134.701 C 954.613 137.189, 948.495 147.025, 947.357 156.635 L 946.776 161.539 952.638 163.927 C 961.737 167.634, 971.850 172.834, 979.281 177.627 C 983.011 180.032, 986.340 182, 986.679 182 C 987.018 182, 987.037 177.998, 986.720 173.107 C 985.485 154.039, 975.798 136.881, 965 134.636 C 963.625 134.350, 961.825 134.379, 961 134.701 M 848.200 136.200 C 845.796 138.604, 846.935 141.456, 851.714 145.002 C 857.633 149.394, 863.352 156.869, 866.248 164 C 868.233 168.889, 868.483 171.267, 868.491 185.399 C 868.500 201.005, 868.542 201.316, 870.793 202.320 C 875.620 204.475, 877.937 198.341, 877.976 183.299 C 878.006 171.750, 876.698 165.374, 872.476 156.500 C 868.500 148.141, 863.206 141.721, 857.093 137.844 C 852.212 134.749, 850.051 134.349, 848.200 136.200 M 905.979 242.038 C 903.132 247.359, 915.920 263.934, 927 269.284 C 934.113 272.718, 943.100 275, 949.510 275 C 955.004 275, 957 273.801, 957 270.500 C 957 267.349, 955.055 266, 950.510 266 C 936.307 266, 921.594 257.409, 915.358 245.475 C 912.965 240.895, 912.058 240.004, 909.785 240.002 C 908.075 240.001, 906.667 240.754, 905.979 242.038 M 1072.267 280.639 C 1081.105 295.253, 1091.581 314.813, 1096.828 326.500 C 1108.428 352.333, 1111.133 369.745, 1106.587 389.303 L 1105.251 395.049 1110.428 392.127 C 1125.174 383.805, 1160.560 370, 1167.145 370 C 1169.279 370, 1170.348 370.670, 1171.201 372.542 C 1172.801 376.054, 1170.321 378.191, 1162.098 380.385 C 1144.761 385.010, 1111.753 400.518, 1092.821 412.932 C 1052.414 439.429, 1016.083 476.716, 996.051 512.250 C 993.282 517.161, 992.390 518, 989.940 518 C 988.102 518, 986.689 517.287, 986.009 516.018 C 984.709 513.587, 987.538 507.614, 995.964 495 C 999.087 490.325, 1001.950 485.976, 1002.327 485.336 C 1002.831 484.479, 1000.052 484.187, 991.756 484.226 C 970.057 484.328, 956.898 479.597, 916.186 457.057 L 902.871 449.685 897.186 451.993 C 891.331 454.369, 881.107 460.777, 875.074 465.853 L 871.649 468.735 875.206 473.117 C 888.207 489.134, 890.566 510.165, 881.276 527.234 C 877.668 533.863, 866.879 543.810, 858.719 548.029 C 855.028 549.938, 852.008 551.725, 852.008 552 C 852.009 552.275, 856.133 555.156, 861.172 558.402 C 873.780 566.524, 894.094 576.033, 911.530 581.977 C 926.216 586.983, 956.280 595, 960.365 595 C 964.210 595, 966.672 597.590, 967.320 602.318 C 967.652 604.739, 968.855 609.211, 969.994 612.255 C 977.302 631.788, 990.333 634.224, 1005.163 618.830 C 1011.408 612.348, 1017.199 601.801, 1020.621 590.675 C 1022.447 584.737, 1024.593 582.523, 1027.455 583.621 C 1030.685 584.860, 1031.082 587.561, 1029.008 594.176 C 1027.918 597.654, 1027.020 600.749, 1027.013 601.054 C 1026.997 601.729, 1045.147 599.595, 1057.500 597.471 C 1103.052 589.638, 1146.125 570.352, 1178.877 543.127 L 1187.255 536.163 1187.481 521.832 C 1187.718 506.815, 1188.553 502.469, 1192.274 496.882 C 1197.511 489.019, 1205.853 488.348, 1215.743 494.996 L 1221.405 498.802 1227.760 489.651 C 1234.624 479.768, 1246.026 459.587, 1250.962 448.586 C 1258.230 432.385, 1270 397.382, 1270 391.966 C 1270 390.482, 1269.510 390.409, 1265.957 391.357 C 1261.127 392.646, 1258.647 391.513, 1258.199 387.814 C 1257.822 384.695, 1259.212 383.602, 1265.500 382.071 C 1272.864 380.277, 1285.742 373.920, 1291.824 369.077 C 1301.571 361.314, 1305.621 351.621, 1301.034 347.034 C 1293.034 339.034, 1271.718 334.862, 1256.789 338.375 C 1250.088 339.952, 1250.310 340.055, 1238.743 330 C 1198.928 295.388, 1147.169 276.946, 1077.204 272.441 L 1066.908 271.778 1072.267 280.639 M 1033.798 347.864 C 1018.164 353.046, 1010.812 361.005, 997.386 387.283 C 991.808 398.202, 983.119 413.114, 977.264 421.818 C 961.942 444.596, 960.556 447.604, 960.525 458.142 C 960.493 469.266, 961.273 470.193, 972.975 472.940 C 983.258 475.355, 996.690 475.600, 1005.350 473.531 C 1012.590 471.802, 1013.540 471, 1008.348 471 C 1000.018 471, 988.157 466.144, 979.207 459.069 C 972.403 453.691, 970.501 450.802, 971.964 448.067 C 973.790 444.656, 977.637 445.489, 983.212 450.501 C 990.449 457.007, 999.496 461.043, 1008.315 461.698 C 1018.603 462.463, 1022.807 461.043, 1027.802 455.119 C 1036.634 444.646, 1066.441 419.519, 1083.636 408.054 C 1091.227 402.992, 1093.831 399.886, 1095.421 394 C 1095.913 392.179, 1095.420 392.567, 1093.603 395.430 C 1090.674 400.045, 1088.700 401.357, 1085.982 400.494 C 1083.279 399.637, 1082.523 395.823, 1084.354 392.283 C 1086.310 388.499, 1093.261 382.224, 1096.354 381.447 C 1098.443 380.923, 1098.837 380.097, 1099.347 375.172 C 1100.632 362.760, 1098.281 358.711, 1086.500 353.050 C 1076.619 348.301, 1069.747 346.899, 1054 346.417 C 1041.658 346.040, 1038.651 346.255, 1033.798 347.864 M 1030 364.290 C 1027.157 365.723, 1026.229 369.366, 1028.125 371.651 C 1029.050 372.765, 1030.434 373.026, 1033.134 372.595 C 1040.722 371.381, 1045.337 375.782, 1047.247 386.052 C 1048.446 392.499, 1050.402 394.642, 1054.035 393.489 C 1056.747 392.628, 1057.380 389.149, 1056.019 382.592 C 1053.113 368.594, 1039.900 359.299, 1030 364.290 M 0.286 469.500 C 0.294 472.250, 0.488 473.256, 0.718 471.736 C 0.947 470.216, 0.941 467.966, 0.704 466.736 C 0.467 465.506, 0.279 466.750, 0.286 469.500 M 860.338 479.268 C 851.458 487.551, 836.609 498.015, 826.255 503.285 C 820.620 506.153, 816.040 508.725, 816.079 509 C 816.117 509.275, 818.438 511.300, 821.236 513.500 C 830.026 520.410, 838 534.929, 838 544.021 C 838 545.677, 838.535 547, 839.204 547 C 839.866 547, 844.579 544.971, 849.677 542.491 C 861.693 536.645, 870.532 528.590, 874.603 519.773 C 877.120 514.324, 877.500 512.318, 877.500 504.500 C 877.500 494.495, 875.617 489.169, 868.706 479.627 L 865.177 474.755 860.338 479.268 M 447.233 524.973 C 439.328 530.927, 438.299 532.020, 440.233 532.407 C 441.480 532.657, 448.575 533.607, 456 534.520 C 485.844 538.187, 510.543 545.397, 526.145 554.995 C 529.608 557.125, 533.806 558.377, 542.645 559.914 C 549.165 561.049, 558.550 563.067, 563.500 564.401 C 581.314 569.198, 591 569.940, 591 566.506 C 591 563.106, 575.350 553, 570.085 553 C 568.300 553, 566.799 549.937, 567.404 547.528 C 568.397 543.570, 571.795 543.440, 580.420 547.031 C 585.352 549.084, 589.984 551.961, 593.430 555.110 C 597.482 558.813, 599.551 560, 601.956 560 C 612.118 560, 611.247 552.984, 599.979 544.077 L 595.244 540.335 576.372 540.236 C 539.041 540.040, 506.289 534.735, 472.303 523.380 C 464.965 520.928, 458.408 518.714, 457.731 518.458 C 457.054 518.203, 452.330 521.135, 447.233 524.973 M 417.728 542.079 C 411.133 545.560, 393.854 550.793, 383.140 552.555 C 363.187 555.834, 340.771 553.293, 325.138 545.977 C 321.638 544.340, 318.413 543, 317.970 543 C 316.166 543, 313.741 552.010, 314.273 556.738 C 314.724 560.740, 315.469 562.086, 318.945 565.172 C 327.702 572.946, 347.329 576.810, 407 582.507 C 444.700 586.107, 466.662 589.486, 488.860 595.102 C 510.292 600.524, 512.779 600.809, 515.990 598.209 C 518.085 596.513, 518.124 596.231, 516.725 592.884 C 513.994 586.347, 502.440 578.898, 487.595 574.103 C 480.855 571.926, 479.445 571.103, 479.173 569.189 C 478.747 566.189, 480.637 564, 483.654 564 C 491.115 564, 510.569 573.118, 518.665 580.410 C 526.526 587.490, 537.625 590.437, 539.965 586.065 C 542.969 580.452, 531.105 567.866, 515 559.584 C 498.724 551.213, 476.882 545.858, 443.500 542.053 C 421.887 539.589, 422.446 539.589, 417.728 542.079 M 78 578.012 C 58.183 579.120, 42.442 580.564, 23 583.060 C -0.968 586.136, 1 585.448, 1 590.751 L 1 595.279 5.750 594.670 C 8.363 594.335, 15.450 593.390, 21.500 592.571 C 77.800 584.948, 128.698 584.479, 184 591.073 C 304.700 605.465, 415.057 653.038, 507 730.314 C 513.875 736.092, 526.025 746.917, 534 754.370 L 548.500 767.919 554.323 767.960 L 560.145 768 558.001 765.250 C 554.347 760.565, 526.147 734.368, 513 723.445 C 491.425 705.521, 479.170 696.347, 457 681.522 C 377.529 628.383, 287.775 595.049, 190.500 582.547 C 156.474 578.173, 109.201 576.268, 78 578.012 M 1374.110 728.667 C 1372.969 739.063, 1370.076 757.727, 1368.439 765.250 C 1367.863 767.898, 1367.992 768, 1371.921 768 L 1376 768 1376 742.500 C 1376 728.475, 1375.863 717, 1375.695 717 C 1375.527 717, 1374.814 722.250, 1374.110 728.667" fill="black" fill-rule="evenodd" stroke="none" />
  </g>
</svg>