<svg viewBox="0 0 1376 768" xmlns="http://www.w3.org/2000/svg">
  <title>ハンバーガー</title>
  <g class="coloring-parts" fill="transparent" stroke="none">
    <path id="bg" data-part="bg" data-label="はいけい" class="coloring-part coloring-part--bg" d="M 0 384 L 0 768 291.559 768 C 485.677 768, 582.911 767.666, 582.500 767 C 582.160 766.450, 579.980 766, 577.655 766 C 570.666 766, 532.247 762.163, 512.236 759.466 C 370.191 740.325, 287.257 703.245, 259.571 646.500 C 251.981 630.942, 247.955 614.238, 247.883 598 C 247.819 583.554, 251.202 572.929, 257.889 566.580 L 260.964 563.661 257.055 560.315 C 247.114 551.806, 237.857 535.481, 233.344 518.500 C 230.985 509.623, 230.685 506.647, 230.667 492 C 230.644 472.483, 232.214 465.212, 239.496 451.113 C 244.871 440.706, 252.324 432.107, 262.186 424.934 L 269.305 419.756 265.729 416.628 C 255.787 407.932, 253.005 387.280, 258.526 363.146 C 259.917 357.063, 260.885 355.115, 264.126 351.874 C 266.930 349.070, 267.650 347.803, 266.656 347.422 C 265.892 347.128, 260.144 347.912, 253.884 349.162 C 244.872 350.963, 239.062 351.443, 226 351.468 C 210.353 351.498, 209.244 351.371, 204.552 349 C 197.759 345.568, 195.487 342.179, 195.550 335.572 C 195.647 325.345, 203.099 318.066, 230.943 301 C 240.365 295.225, 249.207 289.600, 250.592 288.500 L 253.109 286.500 251.116 281.994 C 247.900 274.726, 246.900 265.855, 248.075 255.030 C 253.542 204.660, 276.976 157.004, 314.979 118.969 C 366.040 67.867, 441.405 31.912, 538 12.570 C 558.052 8.555, 584.619 4.622, 603.500 2.874 C 610.650 2.211, 616.928 1.294, 617.450 0.835 C 617.973 0.376, 479.260 0, 309.200 0 L 0 0 0 384" fill="transparent" pointer-events="all" />
    <path id="bg-1" data-part="bg-1" data-label="はいけい" class="coloring-part coloring-part--bg" d="M 759.550 0.833 C 760.072 1.292, 768.150 2.456, 777.500 3.421 C 809.773 6.750, 838.450 11.842, 871.500 20.112 C 973.886 45.731, 1051.105 93.654, 1093.013 157.584 C 1117.267 194.584, 1131.249 242.352, 1127.795 276.414 C 1127.519 279.137, 1128.387 279.922, 1141 288.356 C 1156.545 298.750, 1172.698 314.069, 1177.388 322.864 C 1183.478 334.283, 1181.418 346.056, 1172.212 352.453 C 1168.310 355.164, 1167.043 355.468, 1158.137 355.825 C 1145.616 356.328, 1139.654 355.084, 1105.753 344.889 C 1090.992 340.450, 1078.184 337.099, 1077.290 337.442 C 1074.768 338.410, 1076.602 339.392, 1088.484 343.435 C 1108.016 350.081, 1122.040 358.219, 1125.391 364.850 C 1128.907 371.807, 1130.498 394.120, 1128.113 403 C 1125.302 413.464, 1122.857 418.003, 1118.366 421.092 C 1115.965 422.744, 1114 424.261, 1114 424.462 C 1114 424.663, 1115.735 426.103, 1117.857 427.663 C 1138.063 442.525, 1149.951 480.572, 1144.545 513.078 C 1140.989 534.461, 1134.387 549.543, 1123.946 560.134 L 1118.392 565.768 1121.174 569.634 C 1125.855 576.137, 1128 584.737, 1128 596.995 C 1128 630.910, 1112.870 662.764, 1085.984 685.452 C 1042.779 721.912, 966.942 747.174, 860.884 760.433 C 837.213 763.392, 810.546 765.992, 803.809 765.997 C 801.229 765.998, 798.840 766.450, 798.500 767 C 798.089 767.666, 894.490 768, 1086.941 768 L 1376 768 1376 384 L 1376 0 1067.300 0 C 897.515 0, 759.028 0.375, 759.550 0.833" fill="transparent" pointer-events="all" />
    <path id="part-1" data-part="part-1" data-label="パーツ 1" class="coloring-part " d="M 657 7.672 C 591.620 10.560, 536.062 19.426, 482.389 35.538 C 352.054 74.663, 271.548 152.021, 257.437 251.695 C 254.556 272.046, 258.446 283.070, 271.225 290.765 C 282.317 297.444, 250.067 296.964, 688.303 296.983 C 1128.022 297.002, 1093.727 297.519, 1105.093 290.696 C 1116.010 284.144, 1120.717 273.883, 1119.657 258.952 C 1117.506 228.642, 1103.563 189.894, 1084.771 162 C 1074.834 147.251, 1067.433 138.342, 1053.548 124.419 C 1000.985 71.711, 918.712 34.643, 816.500 17.619 C 766.796 9.341, 705.615 5.525, 657 7.672" fill="transparent" pointer-events="all" />
    <path id="part-2" data-part="part-2" data-label="パーツ 2" class="coloring-part " d="M 273.519 428.277 C 270.187 430.072, 263.951 435.043, 259.437 439.500 C 253.006 445.852, 250.479 449.251, 247.173 456 C 240.854 468.901, 239.552 475.067, 239.566 492 C 239.576 503.545, 240.024 508.275, 241.761 515.209 C 251.056 552.306, 276.477 571.117, 339.500 587.532 C 419.581 608.391, 535.015 619.181, 678.500 619.222 C 810.066 619.259, 920.095 608.813, 1024.500 586.373 C 1099.054 570.348, 1115.821 562.559, 1127.548 538.500 C 1134.469 524.303, 1136.458 514.635, 1136.396 495.500 C 1136.350 481.033, 1136.084 478.638, 1133.619 470.500 C 1128.073 452.188, 1119.537 439.403, 1107.852 431.905 C 1102.813 428.672, 1102.701 428.650, 1097.130 429.879 C 1072.929 435.218, 1050.191 437.825, 1021.005 438.607 C 997.475 439.237, 993.896 439.997, 959.916 451.580 C 895.899 473.402, 836.676 502.527, 742.500 558.505 C 708.284 578.842, 703.527 581.349, 700.557 580.604 C 699.346 580.300, 690.063 575.026, 679.928 568.885 C 594.845 517.330, 519.525 481.915, 447.013 459.372 C 423.109 451.940, 406.768 448.285, 389.500 446.507 C 346.793 442.109, 305.331 434.225, 287.084 427.033 C 284.247 425.915, 281.380 425.012, 280.713 425.027 C 280.046 425.041, 276.809 426.504, 273.519 428.277" fill="transparent" pointer-events="all" />
    <path id="part-3" data-part="part-3" data-label="パーツ 3" class="coloring-part " d="M 263.656 573.959 C 258.196 580.003, 256.629 586.755, 257.277 601.445 C 258.431 627.570, 267.311 647.750, 286.500 667.852 C 297.903 679.797, 311.511 690.368, 325.839 698.409 C 386.537 732.477, 488.437 753.633, 622.500 760 C 649.606 761.287, 728.193 761.276, 756.500 759.980 C 869.209 754.822, 958.595 739.077, 1020.500 713.479 C 1073.752 691.458, 1106.203 660.372, 1116.002 621.993 C 1121.787 599.335, 1120.181 581.086, 1111.706 573.178 L 1109.218 570.856 1104.359 573.315 C 1087.152 582.021, 1031.798 595.388, 969.500 605.880 C 900.992 617.417, 833.424 624.089, 754.500 627.108 C 719.887 628.432, 599.379 627.748, 569.500 626.057 C 482.074 621.110, 425.074 614.651, 369.500 603.392 C 326.662 594.714, 294.649 584.509, 276.030 573.597 C 272.655 571.619, 269.294 570, 268.563 570 C 267.831 570, 265.623 571.781, 263.656 573.959" fill="transparent" pointer-events="all" />
    <path id="part-4" data-part="part-4" data-label="パーツ 4" class="coloring-part " d="M 1118.453 292.061 C 1116.279 294.295, 1111.350 297.676, 1107.500 299.575 C 1093.346 306.557, 1128.553 306.042, 684.779 305.757 L 283.500 305.500 277.128 303.317 C 273.624 302.116, 268.164 299.534, 264.996 297.578 L 259.235 294.022 245.367 302.634 C 222.501 316.834, 218.787 319.296, 213.020 324.079 C 207.115 328.976, 203.306 334.749, 204.289 337.311 C 205.293 339.928, 209.398 341.994, 215.853 343.131 C 225.153 344.769, 241.015 342.811, 277.500 335.520 C 319.787 327.070, 322.970 326.617, 340.500 326.554 C 353.539 326.507, 356.476 326.806, 362.965 328.844 C 376.099 332.968, 385.380 338.624, 403.500 353.545 C 412.532 360.982, 420.968 365.956, 428.885 368.512 C 433.105 369.874, 436.457 370.141, 444.385 369.746 C 457.012 369.117, 465.735 366.140, 488.979 354.529 C 510.811 343.623, 522.038 339.309, 533.732 337.334 C 550.899 334.433, 562.900 337.893, 582.248 351.320 C 587.337 354.852, 593.075 358.544, 595 359.526 C 609.234 366.787, 628.563 365.131, 654.345 354.443 C 682.709 342.684, 687.596 340.834, 696.741 338.395 C 710.217 334.799, 724.032 334.655, 740.931 337.934 C 757.091 341.069, 762.666 340.267, 778.695 332.507 C 794.959 324.634, 799.210 323.557, 814 323.560 C 833.492 323.564, 846.752 326.887, 883.652 341.016 C 926.372 357.374, 940.204 361.125, 958.500 361.315 C 976.724 361.505, 983.766 358.527, 999.753 343.871 C 1018.397 326.779, 1024.174 324.467, 1048 324.562 C 1066.747 324.637, 1074.482 326.125, 1105.197 335.561 C 1142.934 347.154, 1155.655 349.549, 1163.529 346.542 C 1171.833 343.371, 1174.094 336.958, 1169.937 328.369 C 1167.126 322.562, 1156.385 311.175, 1146.593 303.619 C 1138.801 297.605, 1124.307 288, 1123.026 288 C 1122.685 288, 1120.627 289.827, 1118.453 292.061" fill="transparent" pointer-events="all" />
    <path id="part-5" data-part="part-5" data-label="パーツ 5" class="coloring-part " d="M 760.683 420.098 C 737.989 431.809, 694.719 441.117, 636 446.919 C 597.673 450.706, 584.541 451.282, 522.748 451.891 C 488.784 452.226, 460.884 452.888, 460.748 453.362 C 460.612 453.836, 467.925 456.807, 477 459.966 C 540.884 482.199, 606.584 514.126, 681.409 559.299 C 699.594 570.278, 701.554 571.229, 704.050 570.287 C 705.554 569.720, 718.488 562.247, 732.793 553.681 C 819.778 501.594, 877.238 472.578, 939 449.550 C 950.275 445.346, 960.138 441.688, 960.917 441.421 C 964.922 440.047, 958.599 438.992, 940.497 438.016 C 884.816 435.012, 828.665 428.501, 784.502 419.928 C 776.251 418.326, 768.825 417.034, 768 417.056 C 767.175 417.078, 763.883 418.447, 760.683 420.098" fill="transparent" pointer-events="all" />
    <path id="part-6" data-part="part-6" data-label="パーツ 6" class="coloring-part " d="M 265.252 373.750 C 264.875 374.712, 264.558 379.775, 264.548 385 C 264.525 397.195, 266.813 404.751, 271.874 409.194 C 281.596 417.730, 306.038 425.168, 346.500 431.903 C 394.578 439.905, 444.906 443.344, 514 443.346 C 607.331 443.350, 682.427 435.833, 731.768 421.547 C 746.457 417.294, 751.579 415.179, 750.295 413.895 C 749.763 413.363, 741.716 410.952, 732.414 408.538 C 715.813 404.229, 692.303 396.773, 683.724 393.096 C 679.504 391.287, 678.909 391.285, 662.940 393.027 C 579.430 402.140, 465.271 402.301, 369.500 393.441 C 324.239 389.254, 287.432 382.239, 272.902 375.030 C 265.717 371.465, 266.120 371.533, 265.252 373.750" fill="transparent" pointer-events="all" />
    <path id="part-7" data-part="part-7" data-label="パーツ 7" class="coloring-part " d="M 678 354.372 C 658.738 362.360, 658 362.754, 658 365.063 C 658 371.734, 682.070 384.529, 711.500 393.502 C 776.987 413.470, 865.919 426.444, 962 430.047 C 1033.096 432.713, 1098.576 425.484, 1112.959 413.381 C 1117.342 409.693, 1120.221 401.121, 1120.373 391.308 C 1120.524 381.588, 1119.646 380.098, 1115.140 382.428 C 1110.949 384.595, 1097.816 387.587, 1084.500 389.407 C 1056.912 393.180, 993.316 393.914, 946.500 391.001 C 854.574 385.281, 755.827 370.201, 700.261 353.399 C 694.080 351.529, 688.905 350.004, 688.761 350.009 C 688.618 350.014, 683.775 351.978, 678 354.372" fill="transparent" pointer-events="all" />
    <path id="part-8" data-part="part-8" data-label="パーツ 8" class="coloring-part " d="M 329.500 337.972 C 303.799 343.157, 288.650 347.774, 277.594 353.789 C 269.306 358.299, 267.865 360.088, 270.328 362.810 C 281.410 375.055, 353.261 386.017, 448.500 389.992 C 478.880 391.260, 553.409 391.264, 583.500 389.999 C 626.013 388.212, 661.097 385.240, 661.713 383.374 C 661.917 382.755, 659.830 380.629, 657.075 378.650 C 654.208 376.589, 651.178 373.308, 649.986 370.973 C 648.486 368.033, 647.431 367.037, 646.203 367.405 C 621.772 374.718, 605.256 374.710, 590.741 367.377 C 587.858 365.921, 581.450 361.921, 576.500 358.488 C 559.375 346.612, 550.158 343.684, 536.558 345.798 C 525.693 347.488, 518.968 350.054, 494 362.042 C 467.277 374.872, 458.152 377.973, 445 378.693 C 424.846 379.796, 414.668 375.061, 385.500 351.014 C 377.478 344.401, 367.765 339.370, 358.391 336.972 C 348.603 334.469, 346.501 334.542, 329.500 337.972" fill="transparent" pointer-events="all" />
    <path id="part-9" data-part="part-9" data-label="パーツ 9" class="coloring-part " d="M 799.292 333.466 C 796.428 334.275, 790.128 336.924, 785.292 339.352 C 767.860 348.105, 755.457 350.014, 739 346.477 C 730.490 344.648, 714.036 343.388, 711.477 344.370 C 707.604 345.857, 712.844 348.031, 730.813 352.392 C 786.783 365.977, 866.892 377.034, 945.500 382.022 C 973.888 383.824, 1035.346 384.407, 1056.353 383.074 C 1087.673 381.087, 1109.583 377.039, 1116 372.055 L 1118.500 370.113 1115 366.478 C 1110.409 361.710, 1098.886 356.207, 1081 350.243 C 1061.106 343.609, 1028.243 335.462, 1024.841 336.321 C 1021.966 337.047, 1018.146 340.035, 1003.940 352.674 C 989.358 365.646, 977.622 370.296, 959.500 370.283 C 943.526 370.271, 923.761 365.627, 897.500 355.715 C 890.900 353.224, 878.199 348.439, 869.275 345.082 C 845.384 336.094, 832.275 332.916, 817 332.409 C 807.940 332.108, 803.067 332.399, 799.292 333.466" fill="transparent" pointer-events="all" />
  </g>
  <g class="coloring-lines" pointer-events="none">
    <path d="M 602 1.988 C 476.472 15.472, 376.672 56, 313.990 118.946 C 294.439 138.578, 280.507 158.037, 268.484 182.500 C 256.686 206.507, 250.469 227.190, 247.570 252.087 C 245.995 265.603, 246.710 274.295, 250.008 281.751 C 251.095 284.207, 251.754 286.589, 251.474 287.043 C 251.193 287.497, 243.662 292.285, 234.738 297.684 C 208.194 313.742, 199.852 320.621, 195.765 329.817 C 191.778 338.791, 197.069 348.175, 207.932 351.391 C 216.211 353.843, 232.924 353.494, 250.599 350.500 C 258.715 349.125, 265.761 348, 266.255 348 C 266.749 348, 265.818 349.123, 264.187 350.496 C 254.462 358.679, 251.764 394.392, 259.657 410.456 C 260.480 412.130, 262.741 414.889, 264.681 416.588 L 268.209 419.675 261.855 424.213 C 241.970 438.411, 230.827 459.792, 229.392 486.500 C 227.936 513.590, 236.804 540.104, 253 557.089 L 259.500 563.906 255.791 568.035 C 253.751 570.307, 251.051 574.715, 249.791 577.832 C 247.725 582.943, 247.510 585.023, 247.600 599 C 247.686 612.335, 248.066 615.874, 250.315 624.337 C 253.355 635.775, 261.093 652.576, 267.368 661.362 C 306.202 715.732, 400.079 749.798, 553.500 765.192 C 576.048 767.455, 578.742 767.500, 690.500 767.500 C 793.074 767.500, 806.304 767.319, 822.500 765.695 C 895.018 758.424, 952.389 747.523, 997.749 732.396 C 1082.951 703.983, 1126.243 660.712, 1128.712 601.500 C 1129.357 586.031, 1127.799 578.169, 1122.597 570.640 L 1119.238 565.779 1123.133 562.261 C 1129.076 556.892, 1136.364 545.235, 1139.917 535.416 C 1150.156 507.120, 1148.800 475.258, 1136.282 450 C 1132.504 442.376, 1129.967 438.869, 1123.434 432.241 L 1115.294 423.981 1118.544 421.973 C 1122.784 419.352, 1124.450 416.681, 1127.490 407.624 C 1129.497 401.646, 1130 398.164, 1130 390.257 C 1130 380.204, 1128.776 370.699, 1126.846 365.775 C 1125.120 361.369, 1117.795 355.419, 1108.110 350.555 C 1099.368 346.165, 1073.856 337, 1070.376 337 C 1069.436 337, 1068.942 336.724, 1069.279 336.387 C 1070.191 335.475, 1077.735 337.431, 1106.549 346.047 C 1137.136 355.193, 1145.227 357, 1155.592 357 C 1164.959 357, 1169.746 355.658, 1174.573 351.679 C 1181.335 346.105, 1183.660 336.956, 1180.552 328.147 C 1176.538 316.770, 1161.091 300.753, 1141.864 288.032 C 1135.314 283.697, 1129.465 279.988, 1128.867 279.789 C 1128.087 279.529, 1128.103 277.342, 1128.923 272.058 C 1130.957 258.949, 1126.716 231.837, 1119.042 208.885 C 1081.437 96.410, 953.555 20.524, 769.621 1.536 C 746.731 -0.827, 625.152 -0.499, 602 1.988 M 655 8.597 C 651.975 8.800, 642.075 9.441, 633 10.021 C 501.544 18.428, 388.661 60.083, 324.001 124.046 C 287.618 160.037, 265.248 203.216, 258.501 250.480 C 257.551 257.134, 257.064 264.469, 257.405 266.980 C 259.519 282.558, 267.279 290.774, 283.411 294.516 C 289.094 295.834, 337.779 295.982, 691.182 295.756 L 1092.500 295.500 1098.282 293.166 C 1106.856 289.706, 1112.024 285.306, 1115.490 278.517 C 1118.354 272.907, 1118.494 272.059, 1118.379 261.060 C 1118.162 240.339, 1110.392 211.796, 1098.247 187.108 C 1073.328 136.451, 1030.898 96.912, 967.500 65.270 C 907.972 35.560, 837.845 17.887, 750 10.459 C 732.757 9.001, 667.914 7.730, 655 8.597 M 1118.453 293.061 C 1116.279 295.295, 1111.350 298.676, 1107.500 300.574 C 1093.474 307.491, 1127.916 306.963, 688.708 306.983 C 335.483 306.998, 290.086 306.829, 283.508 305.470 C 274.799 303.671, 270.188 301.891, 263.897 297.900 L 259.294 294.980 240.397 306.627 C 213.958 322.922, 206.890 328.607, 205.328 334.831 C 204.474 338.233, 207.478 340.537, 214.781 342.079 C 225.020 344.241, 242.196 341.951, 289.929 332.059 C 314.583 326.949, 334.612 324.576, 346.500 325.355 C 367.457 326.729, 377.580 331.637, 404.154 353.306 C 414.935 362.098, 426.345 367.830, 435 368.803 C 449.892 370.478, 462.179 366.911, 491.328 352.452 C 535.995 330.296, 553.484 329.851, 581.689 350.153 C 586.192 353.395, 592.942 357.488, 596.689 359.248 C 602.653 362.049, 604.744 362.490, 613.500 362.792 C 621.664 363.074, 625.260 362.684, 633.086 360.668 C 642.267 358.303, 647.712 356.279, 674.500 345.277 C 689.558 339.093, 699.163 336.292, 710 334.925 C 719.526 333.724, 724.301 334.074, 741.268 337.220 C 757.089 340.153, 762.737 339.234, 780.179 330.893 C 790.213 326.094, 794.803 324.499, 802.179 323.248 C 819.997 320.224, 842.309 324.347, 874.238 336.563 C 920.122 354.119, 931.787 357.765, 949.438 360.071 C 964.517 362.040, 978.704 359.336, 988.500 352.625 C 991.250 350.741, 997.897 345.133, 1003.271 340.163 C 1018.742 325.856, 1028.483 322.414, 1051 323.303 C 1066.851 323.928, 1077.460 326.195, 1108 335.483 C 1121.475 339.581, 1135.425 343.603, 1139 344.422 C 1160.482 349.340, 1171 346.414, 1171 335.520 C 1171 325.631, 1154.220 308.052, 1131.026 293.643 C 1126.915 291.089, 1123.294 289, 1122.979 289 C 1122.664 289, 1120.627 290.827, 1118.453 293.061 M 800.500 334.133 C 798.300 334.646, 791.288 337.512, 784.918 340.502 C 765.545 349.594, 756.921 350.752, 736.500 347 C 725.415 344.963, 708.796 344.250, 710.550 345.886 C 711.968 347.208, 746.894 355.427, 768 359.405 C 833.407 371.733, 897.574 379.027, 967.500 382.082 C 997.341 383.386, 1057.338 382.793, 1073.500 381.036 C 1094.072 378.798, 1110.850 375.033, 1115.514 371.607 C 1117.462 370.177, 1117.442 370.088, 1114.500 366.987 C 1110.603 362.881, 1096.597 356.181, 1081.477 351.189 C 1068.387 346.868, 1030.542 337, 1027.061 337 C 1023.316 337, 1019.193 339.824, 1007.481 350.411 C 989.453 366.708, 979.389 371, 959.197 371 C 940.036 371, 921.365 366.120, 882.203 350.878 C 859.510 342.046, 843.425 336.916, 831.074 334.574 C 822.066 332.865, 806.880 332.646, 800.500 334.133 M 329 338.981 C 301.142 344.742, 284.302 350.085, 274.703 356.209 C 271.676 358.140, 270.020 359.865, 270.215 360.885 C 270.635 363.071, 278.857 367.461, 288.087 370.427 C 314.322 378.856, 376.393 386.035, 449.500 389.095 C 505.089 391.423, 599.252 389.431, 649.144 384.874 C 661.476 383.747, 662.181 383.570, 660.256 382.086 C 659.125 381.213, 656.648 379.297, 654.751 377.828 C 652.854 376.358, 650.518 373.504, 649.560 371.485 C 648.130 368.473, 647.431 367.928, 645.659 368.446 C 634.271 371.775, 627.126 373.208, 619.484 373.693 C 604.177 374.666, 594.539 371.564, 577.804 360.279 C 571.595 356.093, 563.587 351.281, 560.008 349.584 C 553.978 346.726, 552.730 346.505, 543 346.567 C 529.528 346.654, 523.976 348.517, 494 363.005 C 481.625 368.986, 467.450 375.076, 462.500 376.538 C 445.098 381.679, 429.509 380.797, 415.750 373.893 C 408.365 370.187, 404.030 367.101, 390.138 355.662 C 378.022 345.686, 369.089 340.708, 358.391 337.972 C 348.588 335.465, 345.489 335.571, 329 338.981 M 673.568 357.077 C 665.906 360.351, 659.439 363.228, 659.198 363.469 C 658.957 363.710, 659.052 365.070, 659.409 366.492 C 660.159 369.483, 670.239 376.417, 680.824 381.225 C 722.790 400.287, 810.037 418.007, 898.500 425.436 C 950.980 429.843, 1012.644 430.753, 1046.797 427.626 C 1081.917 424.409, 1105.964 418.867, 1113.195 412.323 C 1116.081 409.712, 1119.161 400.019, 1119.654 392 C 1120.227 382.684, 1119.449 381.200, 1115.157 383.419 C 1101.414 390.525, 1051.877 394.777, 996 393.644 C 917.106 392.046, 831.639 382.932, 759 368.370 C 736.708 363.902, 702.556 355.582, 694.124 352.565 C 691.718 351.704, 689.243 351.028, 688.624 351.061 C 688.006 351.095, 681.231 353.802, 673.568 357.077 M 265.636 377.640 C 264.150 388.479, 266.421 401.970, 270.558 406.887 C 275.758 413.067, 293.652 420.163, 317.427 425.474 C 433.846 451.478, 650.787 447.543, 740.780 417.795 C 745.885 416.108, 749.841 414.508, 749.572 414.239 C 749.304 413.971, 742.203 412.001, 733.792 409.862 C 717.941 405.832, 698.714 399.773, 686.364 394.917 L 679.229 392.111 667.364 393.489 C 595.556 401.830, 489.495 403.219, 402 396.966 C 333.548 392.073, 290.787 384.986, 271.783 375.383 C 269.189 374.073, 266.888 373, 266.669 373 C 266.451 373, 265.986 375.088, 265.636 377.640 M 761.830 420.525 C 738.840 432.498, 694.009 442.183, 635 447.927 C 594.336 451.885, 579.731 452.460, 519.302 452.480 C 486.743 452.491, 460.418 452.771, 460.802 453.101 C 461.186 453.432, 467.125 455.606, 474 457.933 C 536.506 479.087, 613.294 516.561, 688.195 562.464 C 697.722 568.303, 701.465 570.098, 703.195 569.657 C 704.463 569.335, 713.150 564.498, 722.500 558.909 C 786.023 520.941, 802.021 511.972, 844.500 490.511 C 886.674 469.204, 916.833 456.105, 953 443.385 C 958.225 441.547, 961.825 440.033, 961 440.021 C 954.958 439.931, 918.993 437.714, 903 436.445 C 865.297 433.453, 823.795 428.061, 788.075 421.514 C 777.532 419.581, 768.365 418.021, 767.703 418.047 C 767.041 418.072, 764.398 419.188, 761.830 420.525 M 275.485 428.119 C 263.674 434.398, 253.859 444.499, 247.906 456.500 C 242.405 467.589, 240.976 473.550, 240.358 488 C 239.061 518.323, 249.196 542.203, 270.026 557.898 C 283.472 568.030, 302.890 576.444, 331.390 584.488 C 441.321 615.513, 659.441 627.229, 843 611.969 C 917.042 605.813, 995.988 593.217, 1059.325 577.455 C 1087.536 570.434, 1103.509 564.389, 1112.526 557.323 C 1117.370 553.527, 1124.680 543.743, 1127.709 537 C 1134.415 522.075, 1137.649 497.524, 1135.040 481.350 C 1133.498 471.788, 1129.785 460.410, 1125.640 452.539 C 1121.660 444.982, 1113.051 435.641, 1106.751 432.043 L 1101.879 429.260 1095.190 431.014 C 1078.165 435.476, 1051.398 438.550, 1018 439.877 C 997.191 440.704, 996.114 440.851, 984.500 444.438 C 909.802 467.507, 845.134 498.270, 741.364 560.098 C 725.641 569.467, 710.381 578.306, 707.453 579.742 L 702.130 582.353 696.315 579.378 C 693.117 577.741, 682.850 571.750, 673.500 566.064 C 598.547 520.482, 530.991 488.269, 462.500 465.452 C 428.307 454.061, 410.174 449.518, 391 447.542 C 346.392 442.944, 307.938 435.766, 288.227 428.358 C 280.585 425.486, 280.443 425.483, 275.485 428.119 M 264.801 573.750 C 259.106 579.837, 258.495 582.259, 258.556 598.500 C 258.602 610.812, 259.019 615.023, 260.884 622 C 268.379 650.046, 288.095 674.329, 318.785 693.313 C 392.022 738.616, 545.813 763.951, 723.163 759.930 C 764.928 758.983, 785.965 757.890, 819.454 754.930 C 925.078 745.592, 1008.341 724.239, 1057.132 693.978 C 1096.944 669.286, 1118.099 635.928, 1118.316 597.500 C 1118.369 588.157, 1118.037 585.724, 1116.108 581.348 C 1114.860 578.515, 1112.799 575.220, 1111.528 574.026 L 1109.218 571.856 1104.359 574.315 C 1077.854 587.727, 974.872 608.547, 886 618.461 C 810.151 626.922, 751.270 629.532, 655.500 628.680 C 591.698 628.113, 574.096 627.526, 529 624.466 C 412.850 616.583, 315.905 597.556, 276.662 574.941 C 272.901 572.773, 269.273 571, 268.599 571 C 267.925 571, 266.216 572.237, 264.801 573.750" fill="black" fill-rule="evenodd" stroke="none" />
  </g>
</svg>