<svg viewBox="0 0 1376 768" xmlns="http://www.w3.org/2000/svg">
  <title>UFO</title>
  <g class="coloring-parts" fill="transparent" stroke="none">
    <path id="bg" data-part="bg" data-label="はいけい" class="coloring-part coloring-part--bg" d="M 0 384.001 L 0 768.001 688.250 767.751 L 1376.500 767.500 1376.751 383.750 L 1377.003 0 688.501 0 L 0 0 0 384.001 M 0.495 384.500 C 0.495 595.700, 0.610 681.951, 0.750 576.169 C 0.890 470.386, 0.890 297.586, 0.750 192.169 C 0.610 86.751, 0.495 173.300, 0.495 384.500 M 661 28.031 C 573.306 33.611, 489.543 78.807, 440.257 147.137 C 414.788 182.446, 396.518 226.373, 389.053 270.245 C 385.889 288.841, 384.770 301.337, 384.119 325.376 L 383.500 348.253 364 357.495 C 266.943 403.493, 197.806 456.965, 179.916 499.868 C 174.370 513.169, 172.672 522.019, 173.275 534.480 C 175.413 578.660, 211.859 612.774, 282.377 636.602 C 292.775 640.115, 301.833 643.446, 302.505 644.004 C 303.177 644.562, 304.010 647.427, 304.356 650.372 C 305.339 658.738, 309.719 672.629, 314.135 681.387 C 328.446 709.768, 355.525 728.061, 394.500 735.677 C 408.049 738.325, 436.393 738.118, 448.559 735.283 C 482.426 727.391, 506.163 707.926, 519.489 677.118 L 523.650 667.500 538.575 666.776 C 560.259 665.724, 602.746 663.023, 608.105 662.355 L 612.709 661.781 617.812 671.246 C 630.902 695.528, 647.104 711.149, 670.636 722.177 C 693.278 732.787, 723.346 735.247, 754.013 728.997 C 781.207 723.456, 806.422 709.987, 823.583 691.837 C 832.264 682.655, 835.965 677.354, 841.573 666.068 C 848.260 652.610, 851.112 641.725, 851.739 627.261 C 852.049 620.111, 852.733 614.642, 853.385 614.109 C 853.998 613.607, 859.118 611.765, 864.763 610.017 C 874 607.155, 903.639 596.855, 919.679 590.934 L 925.857 588.653 932.179 594.509 C 957.028 617.531, 986.450 627.149, 1018 622.562 C 1051.467 617.697, 1085.653 598.758, 1105.074 574.324 C 1123.871 550.676, 1130.737 521.651, 1124.523 492.112 C 1123.686 488.128, 1123 484.284, 1123 483.568 C 1123 482.853, 1127.767 478.340, 1133.593 473.540 C 1169.249 444.166, 1192.746 414.418, 1202.794 385.931 C 1215.175 350.827, 1207.868 319.002, 1182.342 296.853 C 1174.707 290.227, 1163.580 283.318, 1149.500 276.460 C 1110.715 257.567, 1054.317 245.071, 978.020 238.464 C 967.857 237.584, 959.013 236.426, 958.369 235.891 C 957.724 235.356, 954.844 229.424, 951.969 222.709 C 933.258 179.017, 910.517 144.031, 881.140 113.741 C 830.489 61.518, 768.247 32.661, 696.182 27.992 C 680.113 26.951, 677.921 26.954, 661 28.031 M 1117.676 55.040 C 1114.905 57.220, 1108.471 68.110, 1100.124 84.750 C 1095.885 93.199, 1094.588 94.997, 1092.741 94.980 C 1091.508 94.970, 1084.650 94.299, 1077.500 93.490 C 1059.171 91.417, 1048.820 91.516, 1046.011 93.790 C 1040.997 97.850, 1044.100 106.288, 1053.882 115.192 C 1056.422 117.504, 1062.214 122.846, 1066.754 127.064 L 1075.008 134.733 1070.451 144.552 C 1064.341 157.716, 1059.391 169.820, 1058.581 173.576 C 1057.124 180.332, 1062.603 185.125, 1069.511 183.137 C 1072.852 182.176, 1085.805 175.776, 1099.673 168.235 L 1108.847 163.246 1112.173 166.742 C 1120.845 175.853, 1138.899 191.510, 1142.644 193.167 C 1147.451 195.293, 1151.123 194.508, 1153.029 190.946 C 1154.866 187.513, 1154.254 175.851, 1151.422 160.349 C 1149.977 152.443, 1149.024 145.381, 1149.302 144.655 C 1149.581 143.929, 1156.489 139.918, 1164.654 135.741 C 1181.972 126.883, 1187.715 122.984, 1188.592 119.490 C 1189.466 116.008, 1187.390 111.499, 1184.256 110.071 C 1181.038 108.605, 1167.181 105.748, 1152.277 103.479 C 1146.104 102.539, 1140.670 101.259, 1140.200 100.635 C 1139.731 100.011, 1137.894 92.186, 1136.119 83.247 C 1132.169 63.364, 1130.466 57.466, 1127.945 54.945 C 1125.424 52.424, 1120.949 52.466, 1117.676 55.040 M 195 148.294 C 190.086 150.780, 189.539 153.618, 189 179.464 L 188.500 203.428 186 204.721 C 184.625 205.433, 175.281 209.196, 165.236 213.084 C 144.622 221.062, 141 223.394, 141 228.688 C 141 235.446, 147.084 238.803, 171.500 245.517 C 190.837 250.834, 189.366 249.458, 190.226 263.034 C 191.615 284.986, 192.930 297.082, 194.220 299.773 C 194.934 301.263, 196.731 303.063, 198.213 303.773 C 204.386 306.732, 208.966 302.276, 225.324 277.398 C 230.062 270.192, 234.515 263.821, 235.219 263.240 C 236.151 262.473, 241.546 263.797, 255 268.095 C 278.203 275.509, 284.565 276.795, 288.572 274.883 C 291.020 273.714, 291.550 272.800, 291.804 269.309 C 292.251 263.175, 286.814 253.608, 271.401 233.407 C 267.880 228.793, 265 224.795, 265 224.523 C 265 224.250, 270.361 216.384, 276.913 207.041 C 289.425 189.202, 291.579 184.913, 290.497 179.988 C 288.946 172.924, 280.679 173.379, 254.674 181.960 C 232.876 189.152, 235.633 189.631, 226.212 177.015 C 213.661 160.208, 205.045 150.249, 201.669 148.647 C 197.555 146.695, 198.104 146.724, 195 148.294" fill="transparent" pointer-events="all" />
    <path id="part-1" data-part="part-1" data-label="パーツ 1" class="coloring-part " d="M 963.440 251.296 C 963.167 252.008, 964.522 258.354, 966.453 265.398 C 971.241 282.868, 974.252 299.105, 974.260 307.500 C 974.273 320.264, 967.994 332.834, 954.667 346.722 C 912.192 390.988, 804.381 433.420, 686 452.466 C 636.514 460.427, 579.622 464.167, 538.873 462.138 C 460.920 458.257, 414.620 444.375, 399.167 420.252 C 394.802 413.437, 389.889 394.119, 386.952 372.219 C 386.267 367.114, 385.294 362.682, 384.789 362.370 C 383.689 361.690, 357.094 374.586, 333.500 387.240 C 272.694 419.852, 226.304 454.852, 203.244 485.512 C 192.971 499.172, 186 516.535, 186 528.464 C 186 535.003, 188.438 539.269, 196.662 547.117 C 223.635 572.856, 291.900 591.781, 384 599.049 C 405.972 600.783, 479.500 601.397, 508 600.084 C 692.153 591.601, 892.815 541.639, 1044.500 466.502 C 1099.872 439.074, 1135.670 415.270, 1164.059 387.002 C 1191.336 359.841, 1198.215 344.443, 1190.418 328 C 1172.064 289.298, 1097.874 261.937, 983 251.506 C 963.037 249.694, 964.051 249.705, 963.440 251.296" fill="transparent" pointer-events="all" />
    <path id="part-2" data-part="part-2" data-label="パーツ 2" class="coloring-part " d="M 660.500 40.585 C 596.972 46.920, 545.400 67.076, 500.500 103.119 C 450.238 143.466, 416.404 199.541, 403.092 264.559 C 395.162 303.290, 394.561 343.957, 401.351 382.318 C 403.130 392.367, 404.003 393.207, 407.603 388.335 C 416.227 376.663, 425.351 368.438, 441.500 357.777 C 452.723 350.368, 479.220 336.441, 495.750 329.263 C 499.738 327.531, 503 325.737, 503 325.277 C 503 324.816, 499.574 322.203, 495.386 319.470 C 486.443 313.633, 477.496 304.377, 474.711 298.079 C 468.152 283.251, 478.346 272.435, 492.727 278.963 C 495.053 280.018, 497.162 280.547, 497.415 280.137 C 497.668 279.728, 497.436 277.437, 496.899 275.046 C 493.239 258.755, 506.724 247.165, 518.152 256.781 C 520.133 258.448, 523.053 263.102, 525.782 268.940 L 530.201 278.398 534.351 273.778 C 540.640 266.776, 544.553 265.533, 551.360 268.377 C 559.216 271.660, 560.063 283.290, 553.540 298.307 C 551.150 303.808, 550.067 307.467, 550.654 308.054 C 551.242 308.642, 555.147 307.885, 561.056 306.038 C 566.260 304.411, 577.238 301.265, 585.453 299.046 C 593.667 296.827, 600.765 294.635, 601.225 294.175 C 601.685 293.715, 598.870 289.999, 594.968 285.919 C 582.519 272.901, 569.530 254.742, 562.480 240.500 C 550.968 217.245, 547.389 201.400, 548.292 177.671 C 548.860 162.736, 550.416 155.119, 555.355 143.096 C 577.287 89.703, 650.490 62.617, 709.589 86.026 C 725.401 92.290, 739.186 102.271, 748.548 114.237 C 755.807 123.514, 763.400 139.088, 766.717 151.500 C 769.206 160.818, 769.390 162.932, 769.406 182.500 C 769.421 200.650, 769.115 204.920, 767.150 213.958 C 764.210 227.488, 758.881 243.940, 753.385 256.457 C 750.980 261.933, 749.383 266.783, 749.836 267.236 C 750.288 267.688, 754.673 267.622, 759.579 267.088 C 793.831 263.363, 861.347 263.008, 885.500 266.426 C 916.480 270.811, 939.384 277.658, 954.671 287.106 C 956.415 288.183, 958.086 288.669, 958.385 288.186 C 959.132 286.977, 951.938 259.822, 947.474 247 C 940.101 225.824, 931.755 207.553, 920.524 188 C 905.686 162.167, 891.681 143.651, 871.087 122.637 C 846.365 97.412, 824.255 81.138, 795.500 67.001 C 776.402 57.612, 764.977 53.295, 746.767 48.587 C 726.208 43.272, 708.792 41.011, 685 40.568 C 673.725 40.358, 662.700 40.366, 660.500 40.585" fill="transparent" pointer-events="all" />
    <path id="part-3" data-part="part-3" data-label="パーツ 3" class="coloring-part " d="M 1185.798 379.702 C 1137.829 438.934, 1015.277 502.596, 859 549.460 C 752.638 581.356, 641.241 601.736, 533.530 609.005 C 511.247 610.509, 461.070 611.901, 445.500 611.448 C 438.350 611.239, 423.500 610.822, 412.500 610.521 C 324.336 608.105, 245.021 590.906, 202.268 564.932 C 198.659 562.740, 195.771 561.561, 195.416 562.136 C 194.411 563.761, 201.655 573.718, 209.847 581.970 C 234.647 606.955, 277.151 625.472, 340.500 638.891 C 367.148 644.536, 399.386 648.747, 442.500 652.213 C 464.153 653.955, 551.598 653.941, 575 652.193 C 624.462 648.498, 660.836 644.373, 696.313 638.435 C 824.144 617.037, 956.378 570.560, 1054 512.715 C 1115.656 476.181, 1161.819 435.657, 1182.040 400.316 C 1187.399 390.950, 1193.492 375.092, 1192.221 373.821 C 1191.664 373.264, 1189.137 375.579, 1185.798 379.702" fill="transparent" pointer-events="all" />
    <path id="part-4" data-part="part-4" data-label="パーツ 4" class="coloring-part " d="M 649 87.025 C 630.146 89.671, 611.181 96.916, 596.449 107.100 C 586.536 113.953, 573.625 127.767, 568.102 137.430 C 549.691 169.637, 553.293 211.464, 577.753 249.500 C 593.297 273.671, 619.580 298.812, 643.736 312.615 C 663.779 324.068, 684.610 325.344, 699.310 316.019 C 717.358 304.571, 737.110 275.301, 750.272 240.500 C 759.052 217.283, 763.164 190.819, 761.080 170.923 C 756.483 127.020, 729.952 97.329, 687.439 88.513 C 677.900 86.534, 657.986 85.764, 649 87.025 M 712.079 160.643 C 705.544 162.931, 701.034 166.089, 695.229 172.440 C 677.117 192.257, 673.293 228.886, 688.298 238.816 C 699.051 245.932, 717.500 238.696, 729.677 222.587 C 744.926 202.413, 748.230 177.390, 737.197 165.624 C 731.336 159.374, 721.357 157.395, 712.079 160.643 M 597.340 179.371 C 590.757 181.531, 586.966 184.832, 584.247 190.771 C 573.148 215.015, 604.994 252, 636.970 252 C 650.119 252, 657.015 245.295, 656.987 232.538 C 656.959 219.945, 647.672 201.156, 636.690 191.474 C 628.652 184.388, 617.028 179.024, 608.500 178.464 C 604.078 178.174, 599.968 178.508, 597.340 179.371" fill="transparent" pointer-events="all" />
    <path id="part-5" data-part="part-5" data-label="パーツ 5" class="coloring-part " d="M 801 271.971 C 783.372 272.891, 748.405 275.842, 745.697 276.638 C 743.501 277.284, 731.791 295.191, 732.863 296.263 C 733.283 296.683, 737.648 297.518, 742.563 298.119 C 768.442 301.282, 790.140 311.724, 805.899 328.599 C 818.329 341.909, 824.081 356.590, 824.157 375.198 L 824.200 385.896 832.142 393.067 L 840.084 400.238 851.792 395.512 C 878.500 384.731, 912.331 366.327, 928.959 353.532 C 949.805 337.491, 963.039 319.784, 961.691 309.736 C 959.747 295.240, 936.499 282.953, 899 276.602 C 873.584 272.297, 832.223 270.342, 801 271.971" fill="transparent" pointer-events="all" />
    <path id="part-6" data-part="part-6" data-label="パーツ 6" class="coloring-part " d="M 493.959 338.825 C 460.014 353.876, 439.114 366.742, 423.940 381.931 C 412.677 393.205, 409 399.565, 409 407.771 C 409 412.936, 409.221 413.380, 414.610 419.030 C 429.654 434.802, 467.483 445.770, 521.395 449.990 C 535.524 451.097, 594.505 451.222, 602.500 450.162 L 607.500 449.500 607.649 430.500 C 607.736 419.377, 608.495 406.165, 609.480 398.631 C 610.506 390.781, 610.802 385.402, 610.240 384.840 C 609.678 384.278, 607.599 384.315, 604.909 384.935 C 599.243 386.241, 583.774 386.285, 577.072 385.014 C 570.550 383.777, 561.645 380.207, 554.221 375.855 C 545.698 370.857, 529.643 354.293, 521.165 341.750 C 517.169 335.837, 513.360 331.011, 512.700 331.024 C 512.040 331.036, 503.607 334.547, 493.959 338.825" fill="transparent" pointer-events="all" />
    <path id="part-7" data-part="part-7" data-label="パーツ 7" class="coloring-part " d="M 505.966 263.750 C 504.117 266.084, 503.874 267.333, 504.359 272 C 504.673 275.025, 506.015 280.591, 507.340 284.370 C 508.666 288.148, 509.529 292.086, 509.258 293.120 C 508.453 296.201, 504.027 295.357, 497.500 290.877 C 489.327 285.267, 485.455 283.686, 483.045 284.976 C 474.587 289.503, 486.856 305.212, 509.093 318.328 C 520.505 325.060, 520.757 325.288, 526.812 334.374 C 541.548 356.486, 555.987 369.210, 573 375.074 C 582.149 378.227, 597.273 378.267, 608.855 375.167 C 617.337 372.898, 620.390 372.969, 621.346 375.459 C 621.638 376.220, 621.032 381.528, 619.999 387.255 C 617.066 403.518, 615.683 422.161, 616.420 435.492 C 616.785 442.087, 617.457 447.857, 617.913 448.313 C 618.876 449.276, 643.098 447.181, 644.322 446.029 C 644.774 445.604, 647.576 434.613, 650.549 421.606 C 653.521 408.599, 656.401 397.119, 656.949 396.096 C 658.432 393.324, 653.625 394.577, 723 378.875 C 735.375 376.074, 746.044 373.342, 746.708 372.804 C 748.132 371.650, 745.951 365.341, 738.549 349.206 C 734.026 339.346, 733.895 338.809, 735.437 336.456 C 736.918 334.196, 737.663 334.001, 744.773 334.015 C 764.721 334.053, 781.823 342.858, 789.963 357.280 C 792.240 361.315, 793.774 362.906, 795.778 363.310 C 797.275 363.611, 801.983 366.844, 806.239 370.494 C 810.496 374.145, 814.434 376.850, 814.989 376.507 C 816.487 375.581, 816.216 368.622, 814.412 361.661 C 809.381 342.244, 795.403 326.585, 773.655 316.001 C 761.459 310.065, 750.205 307.196, 735.739 306.334 L 724.978 305.693 718.239 312.183 C 705.224 324.716, 694.946 329.681, 679.916 330.695 C 669.047 331.429, 658.679 329.282, 647.112 323.902 C 642.498 321.756, 638.567 320, 638.376 320 C 638.185 320, 636.618 322.813, 634.893 326.250 C 630.058 335.886, 625.464 341.524, 618.852 345.940 C 606.798 353.989, 590.170 356.448, 577.553 352.047 C 563.333 347.086, 551.316 335.669, 544.387 320.535 C 540.650 312.372, 540.935 307.615, 545.895 295.349 C 550.506 283.948, 551.025 279.238, 547.976 276.478 C 546.011 274.700, 545.871 274.704, 543.226 276.642 C 541.727 277.740, 538.779 281.195, 536.675 284.319 C 533.494 289.043, 532.362 290, 529.948 290 C 526.466 290, 525.701 288.905, 520.028 275.804 C 515.761 265.950, 512.281 261, 509.620 261 C 508.809 261, 507.165 262.238, 505.966 263.750" fill="transparent" pointer-events="all" />
    <path id="part-8" data-part="part-8" data-label="パーツ 8" class="coloring-part " d="M 821.500 623.049 C 773.986 637.289, 710.492 650.289, 655 657.140 C 640.975 658.871, 629.114 660.632, 628.642 661.052 C 627.497 662.072, 632.847 671.926, 638.994 680.116 C 660.643 708.965, 694.047 722.799, 733.202 719.132 C 748.680 717.682, 766.157 713.383, 778.241 708.053 C 813.478 692.508, 837.899 659.659, 839.241 626 C 839.492 619.704, 839.422 619.495, 837 619.327 C 835.625 619.231, 828.650 620.907, 821.500 623.049" fill="transparent" pointer-events="all" />
    <path id="part-9" data-part="part-9" data-label="パーツ 9" class="coloring-part " d="M 317.395 648.412 C 316.446 650.887, 321.703 667.623, 326.061 676.001 C 342.164 706.953, 377.414 725, 421.768 725 C 453.902 725, 479.672 713.172, 496.602 690.654 C 501.917 683.584, 509.349 669.374, 508.474 667.957 C 508.147 667.428, 502.158 667, 495.088 667 C 467.895 667, 422.606 663.942, 390.500 659.938 C 367.712 657.096, 328.227 650.111, 319.763 647.425 C 318.685 647.083, 317.757 647.470, 317.395 648.412" fill="transparent" pointer-events="all" />
    <path id="part-10" data-part="part-10" data-label="パーツ 10" class="coloring-part " d="M 1091.403 504.349 C 1053.806 529.592, 1006.714 554.628, 958.500 575.003 C 950.250 578.489, 942.825 581.976, 942 582.750 C 940.682 583.988, 941.045 584.641, 945 588.148 C 961.057 602.383, 978.409 609.697, 998.500 610.697 C 1016.321 611.584, 1033.049 607.914, 1051.719 599.020 C 1090.995 580.311, 1114.390 547.751, 1113.885 512.500 C 1113.762 503.977, 1111.867 492.732, 1110.500 492.424 C 1109.950 492.300, 1101.356 497.666, 1091.403 504.349" fill="transparent" pointer-events="all" />
    <path id="part-11" data-part="part-11" data-label="パーツ 11" class="coloring-part " d="M 201.476 168.039 C 201.123 168.610, 200.984 177.800, 201.167 188.460 C 201.590 213.083, 202.573 211.425, 182.925 219.231 C 161.940 227.568, 161.405 227.844, 163.094 229.474 C 163.867 230.220, 170.575 232.477, 178 234.489 C 194.440 238.945, 199.421 241.184, 200.908 244.788 C 201.523 246.280, 202.451 255.333, 202.970 264.907 C 203.489 274.480, 204.324 282.724, 204.826 283.226 C 205.377 283.777, 210.032 277.794, 216.557 268.145 C 222.627 259.170, 228.410 251.678, 229.734 251.075 C 234.022 249.121, 238.858 249.941, 256.166 255.554 C 265.586 258.609, 273.655 260.745, 274.099 260.301 C 274.543 259.857, 271.088 254.321, 266.422 247.997 C 254.051 231.232, 252 227.927, 252 224.755 C 252 220.860, 253.711 217.825, 264.052 203.373 C 270.637 194.170, 272.584 190.777, 271.514 190.367 C 270.718 190.062, 262.514 192.329, 253.283 195.406 C 244.051 198.483, 235.507 201, 234.296 201 C 229.678 201, 226.759 198.262, 214.960 182.867 C 208.272 174.140, 202.646 167, 202.459 167 C 202.271 167, 201.829 167.467, 201.476 168.039" fill="transparent" pointer-events="all" />
    <path id="part-12" data-part="part-12" data-label="パーツ 12" class="coloring-part " d="M 770.500 376.681 C 760.050 379.147, 732.240 385.559, 708.701 390.931 C 685.161 396.303, 665.402 401.198, 664.790 401.810 C 664.179 402.421, 661.569 412.203, 658.989 423.549 C 655.396 439.348, 654.599 444.293, 655.583 444.670 C 658.469 445.778, 711.938 436.838, 737 431.058 C 772.312 422.914, 826.839 406.688, 828.629 403.791 C 829.032 403.140, 827.816 401.342, 825.781 399.578 C 823.828 397.885, 817.617 392.450, 811.980 387.500 C 796.731 374.111, 793.926 371.990, 791.609 372.099 C 790.449 372.154, 780.950 374.216, 770.500 376.681 M 775.315 387.434 C 768.220 390.737, 765.208 396.782, 768.030 402.055 C 772.392 410.207, 793.091 407.651, 797.471 398.419 C 802.488 387.848, 788.898 381.110, 775.315 387.434 M 733.143 395.493 C 720.203 399.530, 718.683 414.100, 730.785 418.094 C 738.349 420.590, 750.549 416.706, 753.585 410.835 C 756.845 404.532, 753.273 397.004, 746.074 395.004 C 741.435 393.715, 738.484 393.827, 733.143 395.493 M 683.759 406.423 C 675.779 409.271, 671.600 413.793, 671.600 419.580 C 671.600 425.565, 677.884 430, 686.363 430 C 692.422 430, 703.148 426.536, 705.787 423.726 C 711.386 417.767, 710.427 409.854, 703.722 406.672 C 699.453 404.647, 689.099 404.517, 683.759 406.423" fill="transparent" pointer-events="all" />
    <path id="part-13" data-part="part-13" data-label="パーツ 13" class="coloring-part " d="M 1119.309 75.160 C 1118.712 75.897, 1115.005 82.943, 1111.071 90.818 C 1101.862 109.252, 1103.017 108.655, 1080.842 106.454 C 1071.988 105.575, 1064.399 105.226, 1063.977 105.678 C 1063.555 106.130, 1068.087 110.942, 1074.048 116.371 C 1080.010 121.801, 1085.639 127.828, 1086.559 129.765 C 1088.620 134.108, 1088.160 135.862, 1080.599 152.500 C 1077.555 159.199, 1075.524 164.888, 1076.001 165.377 C 1076.485 165.875, 1081.537 163.736, 1087.677 160.433 C 1093.630 157.231, 1100.058 153.799, 1101.961 152.806 C 1106.464 150.457, 1111.747 150.517, 1115.500 152.960 C 1117.150 154.034, 1123.225 159.404, 1129 164.892 C 1134.993 170.588, 1139.879 174.499, 1140.382 174.004 C 1140.891 173.503, 1140.173 166.859, 1138.688 158.318 C 1137.272 150.168, 1136.358 142.298, 1136.658 140.830 C 1137.497 136.717, 1140.067 134.603, 1151.727 128.432 C 1165.850 120.958, 1167.376 119.972, 1166.357 118.977 C 1165.886 118.517, 1158.975 117.162, 1151 115.966 C 1143.025 114.770, 1135.092 113.209, 1133.372 112.498 C 1129.387 110.850, 1127.842 106.703, 1124.871 89.691 C 1122.507 76.150, 1121.223 72.797, 1119.309 75.160" fill="transparent" pointer-events="all" />
    <path id="part-14" data-part="part-14" data-label="パーツ 14" class="coloring-part " d="M 586 306.937 C 556.865 315.156, 554.108 316.016, 553.441 317.095 C 552.447 318.703, 557.857 326.857, 563.978 332.978 C 567.505 336.505, 572.420 340.066, 576.606 342.127 C 582.772 345.162, 584.311 345.499, 591.979 345.489 C 599.453 345.479, 601.323 345.089, 607.201 342.315 C 617.172 337.607, 626.285 327.466, 628.976 318.082 C 629.789 315.250, 629.559 314.776, 626.181 312.317 C 624.156 310.844, 619.951 307.695, 616.834 305.319 C 613.676 302.912, 610.136 301.034, 608.834 301.077 C 607.551 301.119, 597.275 303.756, 586 306.937" fill="transparent" pointer-events="all" />
    <path id="part-15" data-part="part-15" data-label="パーツ 15" class="coloring-part " d="M 597.500 186.871 C 595.850 187.895, 593.375 189.956, 592 191.450 C 589.778 193.864, 589.504 195.019, 589.536 201.833 C 589.568 208.524, 589.998 210.327, 592.916 216 C 597.545 225, 608.278 235.385, 618 240.270 C 631.546 247.077, 641.229 247.617, 646.961 241.885 C 649.710 239.136, 650 238.238, 650 232.480 C 650 219.259, 640.883 203.300, 627.663 193.377 C 616.898 185.298, 604.380 182.598, 597.500 186.871 M 619.570 205.922 C 615.378 210.555, 616.908 223.062, 622.214 227.527 C 625.901 230.629, 627.459 230.632, 630.545 227.545 C 632.566 225.525, 633 224.102, 633 219.506 C 633 208.052, 624.982 199.942, 619.570 205.922" fill="transparent" pointer-events="all" />
    <path id="part-16" data-part="part-16" data-label="パーツ 16" class="coloring-part " d="M 711.243 168.566 C 701.381 173.481, 690.950 187.541, 687.493 200.581 C 685.477 208.185, 685.365 221.544, 687.278 226.122 C 688.075 228.031, 690.231 230.858, 692.068 232.404 C 694.868 234.760, 696.080 235.138, 699.568 234.745 C 706.313 233.985, 712.646 230.092, 720.484 221.889 C 728.169 213.845, 733.879 203.898, 735.919 195 C 740.828 173.591, 728.233 160.100, 711.243 168.566 M 700.725 192.752 C 696.668 197.235, 695.993 204.184, 698.976 210.757 C 702.270 218.013, 709.394 218.353, 712.045 211.383 C 713.438 207.717, 713.213 200.445, 711.585 196.548 C 709.345 191.189, 703.871 189.275, 700.725 192.752" fill="transparent" pointer-events="all" />
    <path id="part-17" data-part="part-17" data-label="パーツ 17" class="coloring-part " d="M 746.690 343.693 C 746.369 344.212, 747.129 346.856, 748.379 349.568 C 749.629 352.281, 751.936 357.875, 753.506 362 C 755.077 366.125, 756.651 369.848, 757.005 370.274 C 757.816 371.250, 780.641 365.759, 782.183 364.217 C 783.038 363.362, 782.601 362.032, 780.441 358.915 C 776.658 353.456, 770.156 348.579, 763.153 345.946 C 756.738 343.535, 747.564 342.279, 746.690 343.693" fill="transparent" pointer-events="all" />
  </g>
  <g class="coloring-lines" pointer-events="none">
    <path d="M 664 27.129 C 608.097 29.552, 549.489 50.208, 503 83.874 C 435.696 132.613, 395.506 203.483, 384.972 292 C 384.351 297.225, 383.637 311.850, 383.386 324.500 L 382.931 347.500 364.139 356.500 C 278.353 397.587, 214.392 443.574, 188.221 482.984 C 182.931 490.949, 178.356 500.339, 175.301 509.500 C 172.958 516.525, 172.624 519.146, 172.566 531 C 172.510 542.491, 172.849 545.611, 174.844 551.965 C 183.792 580.460, 205.910 602.886, 243.843 621.921 C 256.890 628.468, 265.810 632.045, 285.008 638.427 C 293.538 641.263, 301.075 643.928, 301.758 644.351 C 302.441 644.773, 303 646.384, 303 647.931 C 303 649.478, 304.125 655.189, 305.501 660.622 C 317.335 707.365, 357.882 736.007, 416 738.680 C 464.042 740.890, 503.796 717.430, 520.566 676.973 L 524.188 668.233 539.844 667.559 C 559.131 666.729, 599.515 664.226, 607.113 663.390 L 612.726 662.773 617.742 672.300 C 634.789 704.681, 662.996 725.427, 698.307 731.553 C 708.527 733.326, 730.816 733.595, 741.500 732.074 C 776.112 727.147, 803.590 713.937, 824.002 692.411 C 832.994 682.928, 837.719 675.979, 843.524 663.698 C 849.340 651.396, 852.174 640.043, 852.904 626.127 L 853.500 614.753 883.500 604.501 C 900 598.862, 916.262 593.197, 919.637 591.912 L 925.775 589.576 932.007 595.346 C 958.802 620.153, 990.392 629.325, 1024.971 622.338 C 1067.136 613.817, 1105.601 584.996, 1120.015 551.125 C 1126.977 534.764, 1129.280 516.176, 1126.474 499 C 1125.530 493.225, 1124.549 487.132, 1124.294 485.461 C 1123.863 482.632, 1124.547 481.838, 1134.165 474.003 C 1147.738 462.948, 1170.886 439.778, 1179.516 428.610 C 1193.800 410.124, 1202.647 392.735, 1207.195 374.207 C 1209.941 363.021, 1210.147 345.660, 1207.654 335.500 C 1202.276 313.588, 1186.644 295.777, 1159.500 280.636 C 1120.384 258.816, 1059.655 244.416, 977.536 237.487 C 967.656 236.654, 959.246 235.641, 958.849 235.236 C 958.451 234.831, 955.226 227.958, 951.681 219.963 C 931.030 173.379, 909.967 141.834, 878.560 110.451 C 851.158 83.068, 826.153 65.503, 793.534 50.723 C 753.619 32.637, 711.964 25.049, 664 27.129 M 660 41.663 C 634.779 44.135, 619.838 46.862, 600 52.615 C 537.307 70.795, 482.561 109.721, 447.365 161.142 C 421.087 199.534, 404.895 244.611, 398.924 296 C 397.373 309.349, 397.341 345.444, 398.869 358.500 C 400.418 371.732, 403.097 388.165, 403.981 389.847 C 404.478 390.793, 405.758 389.735, 408.290 386.287 C 414.543 377.768, 428.205 365.587, 441.009 357.115 C 453.436 348.894, 476.965 336.456, 493.250 329.500 C 498.063 327.444, 501.986 325.479, 501.970 325.131 C 501.953 324.784, 498.592 322.325, 494.501 319.667 C 485.959 314.118, 477.221 305.153, 474.129 298.767 C 471.639 293.623, 471.339 286.179, 473.456 282.085 C 475.069 278.966, 480.399 276, 484.390 276 C 485.814 276, 489.252 276.864, 492.031 277.920 L 497.084 279.840 496.376 277.670 C 495.239 274.189, 495.634 263.559, 496.998 260.922 C 499.207 256.650, 502.270 254.004, 506.250 252.933 C 514.454 250.724, 520.648 255.624, 526.977 269.330 L 530.611 277.199 533.421 273.514 C 538.956 266.258, 545.351 264.294, 551.938 267.827 C 560.216 272.267, 561.118 282.933, 554.513 298.284 C 552.435 303.115, 550.927 307.260, 551.163 307.496 C 551.399 307.732, 556.071 306.575, 561.546 304.926 C 567.021 303.276, 577.988 300.143, 585.917 297.963 C 593.846 295.783, 600.556 293.777, 600.829 293.504 C 601.101 293.232, 597.808 289.438, 593.509 285.072 C 572.854 264.096, 556.997 237.131, 550.539 212 C 546.705 197.083, 545.946 175.553, 548.776 162 C 553.058 141.488, 561.223 126.563, 576.414 111.476 C 590.076 97.908, 603.281 89.859, 622.329 83.492 C 636.610 78.718, 648.110 76.898, 664 76.898 C 716.862 76.898, 754.974 104.409, 767.756 151.794 C 770.169 160.742, 770.377 163.101, 770.417 182 C 770.455 200.576, 770.207 203.675, 767.770 215.021 C 764.807 228.818, 759.066 246.356, 753.550 258.459 C 751.583 262.776, 750.136 266.469, 750.333 266.667 C 750.531 266.865, 758.075 266.251, 767.097 265.303 C 791.223 262.767, 866.145 262.744, 884 265.266 C 912.764 269.329, 934.374 275.312, 949.661 283.444 L 958.009 287.885 957.400 285.192 C 943.262 222.677, 911.590 163.926, 868.962 121.140 C 816.018 68, 749.835 40.354, 677.500 41.163 C 669.800 41.250, 661.925 41.474, 660 41.663 M 1116.095 55.779 C 1113.005 59.028, 1101.975 78.319, 1096.386 90.250 C 1095.420 92.313, 1093.925 93.999, 1093.065 93.998 C 1092.204 93.997, 1085.200 93.327, 1077.500 92.509 C 1057.140 90.346, 1048.917 90.491, 1045.635 93.073 C 1040.119 97.412, 1043.376 106.625, 1053.775 116.095 C 1056.374 118.461, 1061.995 123.621, 1066.268 127.560 L 1074.035 134.724 1069.932 143.612 C 1063.611 157.304, 1058.397 170.154, 1057.675 173.821 C 1056.812 178.205, 1059.071 182.480, 1062.967 183.839 C 1067.446 185.400, 1072.975 183.376, 1092 173.211 L 1108.500 164.396 1121.782 176.932 C 1137.737 191.991, 1141.950 195, 1147.078 195 C 1155.600 195, 1156.981 186.466, 1152.504 161.448 C 1151.132 153.777, 1150.007 146.761, 1150.004 145.857 C 1150.001 144.743, 1155.150 141.560, 1165.982 135.978 C 1183.769 126.812, 1188.720 123.106, 1189.632 118.271 C 1190.151 115.521, 1189.742 114.545, 1186.871 111.693 C 1183.931 108.771, 1182.158 108.071, 1173 106.211 C 1167.225 105.039, 1157.775 103.361, 1152 102.483 C 1146.225 101.605, 1141.227 100.574, 1140.894 100.193 C 1140.561 99.812, 1138.853 92.200, 1137.098 83.277 C 1135.344 74.354, 1133.220 64.737, 1132.380 61.907 C 1129.279 51.466, 1122.592 48.950, 1116.095 55.779 M 1112.976 89.061 C 1108.864 97.351, 1104.775 104.792, 1103.888 105.597 C 1100.601 108.580, 1096.163 108.956, 1081.648 107.479 C 1073.867 106.687, 1066.706 106.031, 1065.736 106.020 C 1064.667 106.008, 1068.271 109.986, 1074.875 116.108 C 1080.871 121.667, 1086.366 127.316, 1087.085 128.660 C 1089.326 132.847, 1088.393 137.046, 1082.039 151.360 C 1078.655 158.983, 1076.024 165.323, 1076.193 165.449 C 1076.362 165.575, 1083.025 162.151, 1091 157.842 C 1105.830 149.827, 1109.715 148.714, 1114.316 151.162 C 1115.517 151.802, 1121.675 157.199, 1128 163.157 C 1136.357 171.029, 1139.572 173.513, 1139.763 172.245 C 1139.908 171.285, 1138.964 164.599, 1137.666 157.386 C 1136.368 150.173, 1135.512 142.872, 1135.763 141.162 C 1136.435 136.582, 1139.880 133.745, 1153.630 126.451 C 1160.433 122.841, 1166 119.743, 1166 119.566 C 1166 119.389, 1159.362 118.231, 1151.250 116.994 C 1134.145 114.384, 1130.669 113.204, 1128.682 109.329 C 1127.884 107.773, 1125.990 99.975, 1124.472 92 C 1122.954 84.025, 1121.429 76.710, 1121.082 75.745 C 1120.640 74.512, 1118.224 78.480, 1112.976 89.061 M 646.500 88.383 C 608.805 94.648, 578.872 115.352, 565.423 144.461 C 553.048 171.245, 554.847 203.113, 570.506 234.500 C 578.796 251.118, 587.588 263.353, 602 278.329 C 637.814 315.546, 670.874 329.198, 695.649 317.001 C 721.659 304.197, 750.970 251.987, 759.089 204 C 760.777 194.021, 760.789 171.335, 759.111 162 C 751.040 117.109, 716.683 89.008, 668 87.478 C 659.447 87.209, 651.568 87.541, 646.500 88.383 M 192.323 149.250 C 191.209 150.488, 189.917 152.400, 189.451 153.500 C 188.986 154.600, 188.356 166.273, 188.052 179.440 L 187.500 203.381 182 205.535 C 178.975 206.720, 169.813 210.311, 161.639 213.516 C 145.161 219.977, 140 223.586, 140 228.646 C 140 230.246, 140.706 232.563, 141.570 233.796 C 144.434 237.886, 156.637 242.804, 177.925 248.450 C 183.108 249.824, 187.689 251.298, 188.105 251.725 C 188.521 252.151, 189.373 261.419, 189.999 272.320 C 191.573 299.719, 193.403 305, 201.326 305 C 204.755 305, 205.947 304.369, 209.473 300.690 C 211.744 298.319, 218.396 289.133, 224.255 280.277 C 230.114 271.421, 235.265 263.961, 235.703 263.699 C 236.142 263.436, 245.725 266.136, 257 269.699 C 280.726 277.195, 287.852 278.123, 291.085 274.139 C 295.585 268.593, 292.263 260.540, 277 240 C 271.483 232.575, 266.706 225.947, 266.385 225.270 C 266.064 224.594, 270.524 217.394, 276.297 209.270 C 290.093 189.855, 291.294 187.712, 291.406 182.314 C 291.482 178.674, 291.030 177.443, 289.014 175.811 C 284.939 172.510, 277.267 173.668, 254.687 180.989 C 242.240 185.025, 234.618 187.037, 234.187 186.400 C 230.036 180.273, 210.608 155.704, 206.920 151.918 C 202.803 147.691, 201.583 147, 198.239 147 C 195.471 147, 193.764 147.649, 192.323 149.250 M 712.844 159.394 C 693.291 166.378, 678 191.117, 678 215.766 C 678 229.934, 683.587 239.400, 693.412 241.873 C 707.926 245.528, 727.518 231.763, 738.069 210.500 C 746.803 192.897, 746.832 176.005, 738.145 165.857 C 731.998 158.674, 722.004 156.122, 712.844 159.394 M 710.905 169.431 C 705.048 172.553, 696.704 181.662, 693.027 188.947 C 686.333 202.207, 684.565 218.338, 688.838 227.165 C 693.825 237.467, 705.852 235.798, 718.541 223.042 C 735.501 205.993, 741.448 180.510, 730.839 170.346 C 728.439 168.046, 726.938 167.542, 721.733 167.287 C 716.655 167.038, 714.648 167.436, 710.905 169.431 M 202.031 185.750 C 202.180 195.512, 202.234 204.730, 202.151 206.234 C 201.849 211.708, 197.573 214.660, 180.352 221.287 C 171.471 224.704, 164.046 227.930, 163.852 228.457 C 163.658 228.983, 170.700 231.487, 179.500 234.022 C 188.300 236.557, 196.460 239.239, 197.634 239.983 C 202.117 242.826, 202.888 245.840, 203.886 264.434 C 204.409 274.189, 205.004 282.338, 205.209 282.542 C 205.414 282.747, 210.384 275.814, 216.254 267.135 C 222.863 257.362, 227.910 250.907, 229.510 250.177 C 233.925 248.166, 237.894 248.822, 255.632 254.500 C 265.082 257.525, 273.103 260, 273.455 260 C 274.312 260, 269.309 252.727, 259.887 240.275 C 251.326 228.959, 250.533 227.302, 251.421 222.571 C 251.941 219.798, 266.008 198.105, 270.764 192.744 C 271.620 191.778, 272.136 190.824, 271.911 190.624 C 271.685 190.425, 263.625 192.893, 254 196.110 C 244.375 199.327, 235.465 201.968, 234.200 201.979 C 229.565 202.021, 226.179 198.846, 214.579 183.583 C 208.066 175.013, 202.517 168, 202.249 168 C 201.980 168, 201.882 175.988, 202.031 185.750 M 597 178.649 C 590.203 180.996, 586.047 184.656, 583.255 190.755 C 581.094 195.473, 580.816 197.236, 581.226 203.616 C 582.476 223.101, 602.270 244.743, 624.932 251.404 C 635.784 254.593, 648.386 252.789, 653.212 247.355 C 666.231 232.693, 650.333 195.680, 625.500 182.839 C 614.414 177.106, 605.335 175.772, 597 178.649 M 597.500 187.805 C 591.434 191.665, 590.500 193.539, 590.500 201.855 C 590.500 212.116, 593.783 218.879, 603.460 228.557 C 615.455 240.551, 631.877 247.151, 642.105 244.087 C 647.409 242.498, 649.302 239.300, 649.200 232.102 C 648.978 216.511, 635.636 196.919, 620 189.224 C 612.707 185.635, 601.974 184.958, 597.500 187.805 M 699.683 192.965 C 693.798 199.959, 696.195 214.223, 703.736 217.090 C 711.350 219.985, 716.722 206.593, 712.063 196.331 C 708.928 189.427, 703.827 188.040, 699.683 192.965 M 619.092 205.402 C 614.631 210.151, 615.515 221.321, 620.799 226.961 C 624.947 231.388, 627.473 231.681, 631.007 228.147 C 633.590 225.563, 633.997 224.425, 633.978 219.827 C 633.927 207.338, 625.209 198.890, 619.092 205.402 M 966.163 260.750 C 970.605 275.862, 975.194 299.682, 975.170 307.500 C 975.129 320.410, 969.209 332.364, 955.883 346.442 C 922.446 381.766, 849.055 415.926, 757 439.014 C 686.375 456.727, 599.307 466.269, 537.629 463.055 C 482.907 460.204, 442.958 452.109, 419.967 439.213 C 410.084 433.670, 400.302 424.521, 396.751 417.500 C 392.993 410.068, 388.022 388.349, 385.472 368.214 C 384.861 363.391, 384.614 362.985, 382.651 363.578 C 378.490 364.836, 331.318 389.076, 315.585 398.041 C 233.630 444.740, 187 491.970, 187 528.280 C 187 533.100, 187.511 534.881, 189.877 538.320 C 211.514 569.754, 292.908 593.147, 401 598.998 C 425.026 600.298, 485.850 600.282, 512.546 598.969 C 679.588 590.751, 857.640 548.985, 1009.500 482.397 C 1025.809 475.245, 1067.565 454.258, 1083 445.454 C 1135.450 415.538, 1174.913 381.641, 1188.755 354.615 C 1191.819 348.632, 1192.407 346.458, 1192.450 340.954 C 1192.554 327.378, 1181.219 311.592, 1162.718 299.549 C 1131.122 278.981, 1083.290 264.793, 1016 256.029 C 1001.425 254.130, 970.031 251.013, 965.398 251.004 C 963.315 251, 963.322 251.086, 966.163 260.750 M 506.557 264.223 C 504.315 267.424, 504.634 273.058, 507.551 281.745 C 512.503 296.499, 509.217 299.622, 497.169 291.613 C 486.655 284.623, 482.845 283.761, 481.479 288.065 C 479.565 294.096, 491.669 307.248, 507.754 316.615 C 520.002 323.747, 520.972 324.630, 528.021 335.068 C 552.036 370.629, 576.740 382.451, 609.439 374.030 C 621.771 370.854, 623.889 372.535, 621.603 383.684 C 618.524 398.704, 617.541 409.300, 617.521 427.667 C 617.509 438.209, 617.808 447.142, 618.185 447.518 C 618.561 447.895, 624.512 447.648, 631.409 446.970 C 641.398 445.987, 644.045 445.408, 644.424 444.118 C 644.686 443.228, 647.198 432.375, 650.008 420 C 652.817 407.625, 655.767 396.499, 656.564 395.276 C 658.363 392.513, 659.181 392.290, 707 381.486 C 728.175 376.702, 745.826 372.591, 746.225 372.350 C 747.054 371.850, 743.761 362.752, 739.038 352.500 C 737.265 348.650, 735.190 343.783, 734.428 341.684 C 733.103 338.035, 733.155 337.754, 735.616 335.293 C 738.116 332.793, 738.465 332.735, 747.845 333.268 C 767.746 334.397, 783.555 343.442, 791.429 358.205 C 792.664 360.520, 794.284 362.007, 795.929 362.338 C 797.343 362.622, 801.875 365.801, 806 369.404 C 810.125 373.006, 813.903 375.964, 814.395 375.977 C 816.228 376.024, 814.099 362.192, 811.074 354.402 C 800.864 328.102, 770.661 309.216, 735.736 307.292 L 724.972 306.699 718.236 313.202 C 710.386 320.780, 702.906 325.768, 694.500 329.030 C 689.521 330.961, 686.542 331.370, 677 331.429 C 664.326 331.507, 656.031 329.569, 644.814 323.906 C 641.648 322.308, 638.888 321, 638.681 321 C 638.474 321, 636.633 324.381, 634.591 328.514 C 618.008 362.067, 573.071 364.183, 550.446 332.477 C 539.709 317.430, 538.754 310.808, 545.057 295.098 C 549.693 283.543, 550.199 276.743, 546.463 276.208 C 544.128 275.874, 541.180 278.715, 536.629 285.686 C 534.128 289.517, 532.846 290.562, 530.351 290.805 C 526.409 291.189, 524.863 289.123, 518.948 275.556 C 513.078 262.094, 510.012 259.289, 506.557 264.223 M 799.490 272.971 C 777.634 274.164, 746.789 277.042, 744.872 278.068 C 743.962 278.556, 741.840 281.327, 740.157 284.227 C 738.474 287.127, 736.147 290.937, 734.987 292.693 L 732.876 295.886 736.188 296.401 C 738.010 296.684, 742.087 297.192, 745.249 297.530 C 748.411 297.867, 754.936 299.201, 759.749 300.493 C 788.884 308.315, 812.209 327.823, 821.497 352.136 C 823.925 358.491, 824.373 361.313, 824.770 372.731 L 825.231 385.961 832.515 392.481 C 836.521 396.066, 840.143 399, 840.563 399 C 840.982 399, 849.240 395.627, 858.913 391.503 C 880.587 382.265, 902.381 370.649, 919.500 359.213 C 944.306 342.640, 962.012 321.667, 960.737 310.363 C 958.763 292.847, 928.693 280.071, 876.261 274.473 C 859.226 272.654, 819.533 271.878, 799.490 272.971 M 591 306.440 C 571.863 311.741, 554.825 316.841, 554.215 317.451 C 553.288 318.378, 559.230 327.146, 564.290 332.317 C 567.470 335.568, 572.220 338.978, 576.482 341.071 C 582.787 344.167, 584.296 344.500, 592.038 344.498 C 599.955 344.496, 601.203 344.204, 608.338 340.677 C 616.329 336.728, 621.831 331.225, 625.944 323.069 C 629.713 315.593, 629.844 315.910, 619.992 308.657 C 614.891 304.902, 609.980 302.032, 608.725 302.073 C 607.501 302.113, 599.525 304.078, 591 306.440 M 495.780 338.919 C 462.163 353.637, 439.417 367.512, 424.414 382.452 C 413.800 393.021, 410 399.625, 410 407.502 C 410 416.156, 415.967 422.146, 432.500 430.086 C 452.160 439.527, 480.714 445.648, 521 449.058 C 536.104 450.336, 587.174 450.655, 599.500 449.548 L 607.500 448.830 607.621 425.165 C 607.702 409.281, 608.226 398.758, 609.214 393.160 L 610.686 384.819 607.593 385.436 C 599.063 387.136, 583.056 387.213, 575.755 385.589 C 555.788 381.147, 536.736 366.147, 520.414 342.019 C 516.687 336.508, 513.156 332.008, 512.568 332.018 C 511.981 332.028, 504.426 335.133, 495.780 338.919 M 748.519 347.604 C 749.436 349.747, 751.799 355.550, 753.769 360.500 C 755.738 365.450, 757.425 369.616, 757.516 369.757 C 757.837 370.256, 780.511 364.686, 781.410 363.888 C 782.650 362.787, 777.881 355.774, 773.747 352.621 C 768.266 348.440, 759.268 344.835, 752.867 344.254 L 746.851 343.709 748.519 347.604 M 771 377.553 C 760.825 379.941, 733.150 386.265, 709.500 391.607 C 685.850 396.948, 666.091 401.679, 665.591 402.119 C 664.359 403.202, 655.190 443.422, 656.088 443.800 C 657.222 444.278, 685.972 440.134, 704 436.895 C 722.252 433.615, 747.578 427.879, 770.500 421.833 C 787.997 417.218, 828 404.211, 828 403.137 C 828 402.449, 804.785 381.826, 797.171 375.750 C 795.276 374.238, 792.774 373.047, 791.612 373.105 C 790.451 373.163, 781.175 375.165, 771 377.553 M 1187 379.209 C 1176.117 393.685, 1147.782 418.435, 1123.422 434.743 C 1031.057 496.578, 877.066 553.886, 720 584.879 C 646.741 599.335, 587.526 606.900, 515.639 610.985 C 492.574 612.296, 418.295 612.287, 397 610.971 C 310.442 605.622, 246.196 591.182, 206.250 568.098 C 200.613 564.840, 196 562.479, 196 562.851 C 196 564.157, 202.780 573.556, 207.512 578.811 C 212.212 584.030, 224.630 594.122, 232.500 599.119 C 272.354 624.422, 338.804 642.113, 421.500 649.436 C 456.180 652.507, 479.104 653.256, 522 652.720 C 566.616 652.163, 593.765 650.476, 639 645.450 C 750.487 633.062, 868.073 600.912, 970.500 554.810 C 1081.046 505.055, 1161.103 444.098, 1185.981 390.740 C 1189.535 383.117, 1192.559 374.188, 1191.816 373.511 C 1191.642 373.352, 1189.475 375.917, 1187 379.209 M 775.097 386.639 C 769.713 389.322, 766.007 393.750, 766.007 397.500 C 766.007 401.133, 769.658 405.732, 773.567 407.022 C 786.993 411.453, 803.246 400.642, 798.426 390.486 C 795.201 383.690, 784.542 381.932, 775.097 386.639 M 778.323 393.588 C 774.729 395.388, 773.304 397.941, 775.216 399.155 C 779.241 401.708, 790.500 398.279, 790.500 394.500 C 790.500 392.834, 789.749 392.458, 786 392.248 C 783.397 392.103, 780.160 392.667, 778.323 393.588 M 733.620 394.233 C 729.169 395.411, 722.510 401.553, 721.831 405.106 C 719.351 418.075, 736.439 424.367, 750.091 415.512 C 759.173 409.620, 756.960 397.765, 746.101 394.136 C 742.105 392.801, 738.941 392.825, 733.620 394.233 M 736.643 402.028 C 732.906 403.148, 730 405.839, 730 408.180 C 730 412.631, 741.279 412.812, 745.660 408.430 C 748.824 405.267, 748.614 404.154, 744.532 402.449 C 740.665 400.833, 740.636 400.832, 736.643 402.028 M 682.313 406.099 C 675.147 408.854, 671 413.729, 671 419.398 C 671 429.020, 681.917 433.372, 696.081 429.397 C 716.695 423.613, 714.692 403.968, 693.500 404.074 C 689.975 404.092, 685.360 404.927, 682.313 406.099 M 684.331 413.937 C 678.766 416.464, 677.198 419.325, 680.219 421.441 C 681.443 422.298, 684.063 423, 686.041 423 C 691.508 423, 699.740 420.209, 701.442 417.779 C 702.807 415.831, 702.795 415.431, 701.325 413.806 C 699.085 411.332, 689.913 411.402, 684.331 413.937 M 1090.448 505.871 C 1052.900 530.997, 1010.283 553.711, 960.525 575.116 C 950.639 579.369, 942.407 583.280, 942.231 583.807 C 941.620 585.640, 957.215 597.060, 966.330 601.454 C 978.406 607.277, 985.177 608.999, 998.739 609.698 C 1017.650 610.674, 1035.163 606.540, 1055.050 596.408 C 1087.137 580.061, 1107.564 554.834, 1112.082 525.977 C 1113.623 516.133, 1112.245 492.858, 1110.133 493.061 C 1109.785 493.094, 1100.927 498.859, 1090.448 505.871 M 828.500 622.115 C 799.203 630.810, 746.009 643.466, 716 648.882 C 690.409 653.500, 637.538 660.969, 630.250 660.995 C 627.967 661.004, 628.945 663.473, 634.845 672.595 C 649.554 695.341, 669.624 709.722, 695.693 716.198 C 702.958 718.003, 707.389 718.387, 721 718.390 C 738.560 718.394, 747.258 717.179, 763.649 712.429 C 805.697 700.244, 835.092 666.761, 838.551 627.111 C 838.940 622.650, 839.088 619.033, 838.879 619.074 C 838.671 619.114, 834 620.483, 828.500 622.115 M 318.504 652.100 C 320.674 665.162, 329.695 683.290, 339.107 693.501 C 347.744 702.871, 363.464 712.547, 378.204 717.566 C 392.385 722.396, 400.269 723.483, 421 723.468 C 443.700 723.452, 451.097 721.997, 466.500 714.518 C 482.504 706.747, 494.954 694.443, 503.443 678.006 C 505.949 673.153, 508 668.988, 508 668.751 C 508 668.514, 497.305 668.028, 484.233 667.671 C 446.282 666.634, 406.477 663.429, 375.500 658.915 C 361.697 656.904, 322.415 649.480, 319.349 648.304 C 317.999 647.786, 317.878 648.330, 318.504 652.100" fill="black" fill-rule="evenodd" stroke="none" />
  </g>
</svg>